<?xml version="1.0" encoding="UTF-8"?>
<svg version="1.1" xmlns="http://www.w3.org/2000/svg" width="1774" height="887">
<path d="M0 0 C585.42 0 1170.84 0 1774 0 C1774 292.71 1774 585.42 1774 887 C1188.58 887 603.16 887 0 887 C0 594.29 0 301.58 0 0 Z " fill="#000000" transform="translate(0,0)"/>
<path d="M0 0 C2.5625 0.1875 2.5625 0.1875 4.5625 2.1875 C4.92121887 4.06707764 4.92121887 4.06707764 5.07739258 6.40917969 C5.14138748 7.3016037 5.20538239 8.19402771 5.27131653 9.11349487 C5.36324532 10.59645554 5.36324532 10.59645554 5.45703125 12.109375 C5.52931442 13.15835968 5.6015976 14.20734436 5.67607117 15.28811646 C5.91810101 18.8373633 6.1465361 22.3873559 6.375 25.9375 C6.54487927 28.47286558 6.71547022 31.00818357 6.88671875 33.54345703 C7.40881947 41.32800927 7.91407486 49.11359148 8.41516876 56.89952087 C8.56420639 59.21399939 8.71365313 61.52845115 8.86322021 63.84289551 C9.81653919 78.59720305 10.76336634 93.35192248 11.7019043 108.10717773 C14.03468213 144.77035936 16.4363422 181.42929134 19.1729126 218.06484985 C20.08345073 230.27814419 20.93027142 242.4954246 21.75390625 254.71484375 C21.80680565 255.49965181 21.85970505 256.28445988 21.91420746 257.09305 C22.46285334 265.23816711 23.00889833 273.38345699 23.55312347 281.52887058 C24.9844673 302.98794542 24.9844673 302.98794542 26.55078125 324.4375 C26.65947037 325.86920532 26.65947037 325.86920532 26.77035522 327.32983398 C27.08703387 331.48377471 27.41104641 335.63688099 27.75 339.7890625 C28.55270621 349.94176471 28.68974517 360.00788661 28.5625 370.1875 C26.42578125 371.00820923 26.42578125 371.00820923 23.5625 371.1875 C21.34291409 369.54616768 19.64068318 368.02579831 17.75 366.05615234 C17.19159424 365.49862274 16.63318848 364.94109314 16.05786133 364.3666687 C14.21150217 362.51612307 12.38731911 360.64520735 10.5625 358.7734375 C9.28256514 357.482307 8.00129526 356.19249868 6.71875 354.90396118 C3.34042309 351.50270458 -0.01952292 348.08383606 -3.37597656 344.66101074 C-6.78155088 341.19433452 -10.20389574 337.74430799 -13.625 334.29296875 C-19.15819356 328.70703651 -24.68105612 323.11113524 -30.19018555 317.50146484 C-34.6113474 313.00169279 -39.07291997 308.5438173 -43.5534668 304.10327148 C-47.82959365 299.86280985 -52.09955146 295.6161922 -56.36743164 291.36743164 C-58.20940691 289.53556726 -60.05316555 287.70549439 -61.89868164 285.87719727 C-64.56606903 283.23401786 -67.22699033 280.58447713 -69.88671875 277.93359375 C-70.7137883 277.11684677 -71.54085785 276.30009979 -72.39299011 275.45860291 C-73.15750992 274.69423416 -73.92202972 273.92986542 -74.7097168 273.14233398 C-75.38302536 272.47346664 -76.05633392 271.8045993 -76.75004578 271.11546326 C-80.34724089 267.00556806 -81.27701161 263.05769743 -81.21875 257.67578125 C-79.15082089 248.44247778 -72.31278105 237.50569497 -64.4375 232.1875 C-61.90851435 230.92300718 -60.01269546 230.94833158 -57.1875 230.875 C-56.25421875 230.83761719 -55.3209375 230.80023438 -54.359375 230.76171875 C-47.58106273 231.74946746 -42.75959074 237.50142729 -38 242.0625 C-33.25363988 246.58052959 -28.44644267 250.96059871 -23.4375 255.1875 C-23.67882263 250.38975775 -23.92746005 245.59246253 -24.18212891 240.79541016 C-24.2673457 239.17246108 -24.3507557 237.54941586 -24.43212891 235.92626953 C-24.85630814 227.48981588 -25.37983375 219.10059792 -26.37890625 210.7109375 C-27.69763474 199.61009415 -28.45232647 188.46866767 -29.24243164 177.31982422 C-29.49958175 173.69339835 -29.76205257 170.06738752 -30.02539062 166.44140625 C-30.944531 153.69547096 -31.79034095 140.95027365 -32.4375 128.1875 C-33.0975 128.1875 -33.7575 128.1875 -34.4375 128.1875 C-34.55867187 128.76951172 -34.67984375 129.35152344 -34.8046875 129.95117188 C-35.4576447 132.25869037 -36.31734547 133.9257895 -37.5625 135.96875 C-38.01278564 136.71342529 -38.46307129 137.45810059 -38.92700195 138.2253418 C-39.42546631 139.037854 -39.92393066 139.85036621 -40.4375 140.6875 C-40.9636792 141.55479736 -41.4898584 142.42209473 -42.03198242 143.31567383 C-43.1979081 145.236091 -44.36625065 147.15504229 -45.53662109 149.07275391 C-47.87623929 152.90641034 -50.20720889 156.74528536 -52.53788757 160.5843811 C-52.88801407 161.16110565 -53.23814056 161.7378302 -53.59887695 162.33203125 C-53.95229156 162.9142041 -54.30570618 163.49637695 -54.66983032 164.09619141 C-55.75749778 165.88734725 -56.84584329 167.6780896 -57.93432617 169.46875 C-65.67075817 182.19928197 -73.32764566 194.97728037 -80.97705078 207.76025391 C-82.42156733 210.1738826 -83.86674465 212.58711315 -85.3125 215 C-85.78196045 215.7835083 -86.2514209 216.5670166 -86.73510742 217.37426758 C-91.5160223 225.34033879 -96.35039154 233.27385561 -101.17944336 241.21078491 C-105.44001806 248.21591815 -109.67667683 255.23270418 -113.8125 262.3125 C-118.8971885 271.01400104 -124.15596048 279.6043961 -129.4375 288.1875 C-130.02805176 289.1480127 -130.61860352 290.10852539 -131.22705078 291.09814453 C-135.26317733 297.66267899 -139.30291865 304.22498194 -143.34375 310.78662109 C-146.09840821 315.26101346 -148.85086752 319.73675504 -151.60229492 324.21313477 C-152.94399256 326.39337318 -154.28788425 328.57226301 -155.6340332 330.74975586 C-158.79461983 335.86509534 -161.92553879 340.99263329 -164.98046875 346.171875 C-173.3245299 360.22255523 -180.82101016 370.7592924 -197.21923828 375.72729492 C-202.19087346 376.75872045 -207.37978108 376.45885803 -212.4375 376.5 C-213.62601562 376.52900391 -214.81453125 376.55800781 -216.0390625 376.58789062 C-217.18117188 376.59626953 -218.32328125 376.60464844 -219.5 376.61328125 C-220.54285156 376.62786377 -221.58570313 376.64244629 -222.66015625 376.6574707 C-226.18585014 376.06086726 -227.33165827 375.04142104 -229.4375 372.1875 C-230.92645013 366.71995911 -229.64987397 361.92562932 -226.9375 357.09375 C-225.79299199 355.27751299 -224.62484879 353.47602406 -223.4375 351.6875 C-222.14676789 349.65908799 -220.8564181 347.63043266 -219.56640625 345.6015625 C-218.88852051 344.55258789 -218.21063477 343.50361328 -217.51220703 342.42285156 C-214.0485151 337.02148119 -210.72193966 331.53665621 -207.375 326.0625 C-206.02317224 323.86654889 -204.67031849 321.67122904 -203.31640625 319.4765625 C-200.88507268 315.53486413 -198.45531919 311.59220506 -196.02734375 307.6484375 C-189.98800796 297.8521206 -183.86335988 288.11503902 -177.66748047 278.41699219 C-173.70488592 272.20559502 -169.80259374 265.95997146 -165.9375 259.6875 C-160.85332367 251.43745543 -155.67952659 243.24830042 -150.46582031 235.07958984 C-145.79920855 227.7659504 -141.18576384 220.4208566 -136.60107422 213.05566406 C-134.65459638 209.93051752 -132.70193181 206.80924173 -130.75 203.6875 C-129.91925852 202.35808061 -129.08852989 201.02865319 -128.2578125 199.69921875 C-126.14967584 196.32604722 -124.03988214 192.95391569 -121.9296875 189.58203125 C-113.17881029 175.59541152 -104.47213445 161.58221898 -95.80517578 147.54345703 C-89.61513521 137.51702444 -83.39899354 127.50941189 -77.09301758 117.55541992 C-73.05562478 111.17882446 -69.05638009 104.77891841 -65.0625 98.375 C-54.64007122 81.6763153 -44.02617292 65.10102581 -33.41186523 48.52392578 C-19.78126939 27.25225707 -19.78126939 27.25225707 -6.36767578 5.84350586 C-2.8773277 0.2213329 -2.8773277 0.2213329 0 0 Z " fill="#FBFAFB" transform="translate(613.4375,241.8125)"/>
<path d="M0 0 C-0.44947738 5.41037592 -2.62686074 9.00578616 -5.625 13.375 C-6.63482996 14.89058479 -7.64252273 16.40759507 -8.6484375 17.92578125 C-9.19081055 18.74127441 -9.73318359 19.55676758 -10.29199219 20.39697266 C-13.3574709 25.06880428 -16.29882858 29.81795397 -19.25 34.5625 C-20.53385312 36.62239648 -21.8177073 38.68229231 -23.1015625 40.7421875 C-23.74512695 41.77569336 -24.38869141 42.80919922 -25.05175781 43.87402344 C-26.97653571 46.96235129 -28.90539395 50.04808603 -30.8359375 53.1328125 C-36.77008882 62.61479467 -42.68861106 72.10555767 -48.5625 81.625 C-54.15741101 90.68616473 -59.86039446 99.67580782 -65.58984375 108.65234375 C-70.26870531 115.98295637 -74.90625637 123.33953713 -79.54541016 130.6953125 C-80.99081789 132.98545164 -82.43840684 135.27419657 -83.88671875 137.5625 C-84.60770752 138.70223267 -84.60770752 138.70223267 -85.34326172 139.86499023 C-86.32496895 141.41683152 -87.30706711 142.96842556 -88.28955078 144.51977539 C-91.10693277 148.97615456 -93.89893461 153.44699348 -96.66796875 157.93359375 C-102.43484557 167.26618736 -108.21865236 176.58471274 -114.4375 185.625 C-114.88480469 186.29289551 -115.33210937 186.96079102 -115.79296875 187.64892578 C-121.41716185 195.65306235 -128.89820484 200.47234679 -138.42152405 202.52088928 C-143.38940706 203.18602327 -148.30299016 203.1812334 -153.31030273 203.20874023 C-154.4411026 203.21852402 -155.57190247 203.2283078 -156.73696899 203.23838806 C-160.46916539 203.26823994 -164.2013264 203.28969375 -167.93359375 203.30859375 C-169.8484492 203.31845149 -169.8484492 203.31845149 -171.8019886 203.32850838 C-177.16625706 203.35436431 -182.53051151 203.37785255 -187.89482021 203.39300442 C-195.56238108 203.41492411 -203.22924324 203.45696381 -210.89652485 203.52644199 C-216.95244101 203.57944518 -223.00803562 203.59949219 -229.06419563 203.60820198 C-231.63463848 203.61676599 -234.20506852 203.63560701 -236.7753582 203.6649456 C-240.37089601 203.703793 -243.96460542 203.70490293 -247.56030273 203.69702148 C-249.14946754 203.7270224 -249.14946754 203.7270224 -250.77073669 203.75762939 C-256.82377408 203.69808757 -260.31490597 202.8816912 -264.79119968 198.70837498 C-266.70224861 196.00752512 -266.89244422 193.6051002 -266.62158203 190.36425781 C-265.4352916 185.85206752 -262.77743231 182.5019015 -259.9375 178.875 C-259.37611328 178.11574219 -258.81472656 177.35648438 -258.23632812 176.57421875 C-256.54655298 174.33019736 -254.7999942 172.15638403 -253 170 C-252.46906738 169.36094727 -251.93813477 168.72189453 -251.39111328 168.06347656 C-245.93369416 162.04452759 -239.36127668 158.50994459 -231.24812317 157.56130981 C-227.67480207 157.38753191 -224.10638962 157.39232014 -220.52981949 157.4389801 C-218.1388821 157.46946961 -215.74970866 157.46792957 -213.35861206 157.4588623 C-207.42386181 157.44271426 -201.48967724 157.47978285 -195.55505371 157.51544189 C-190.52531501 157.54359655 -185.49633683 157.55091949 -180.46654892 157.53187561 C-178.13479459 157.53126684 -175.80469691 157.56021013 -173.47317505 157.59069824 C-163.04397425 157.62379985 -152.98279015 156.12548184 -144.44921875 149.578125 C-141.80205704 146.79163899 -139.82016748 144.02750745 -137.8125 140.75 C-137.04104333 139.5086925 -136.26887477 138.26782721 -135.49609375 137.02734375 C-135.09374512 136.37491699 -134.69139648 135.72249023 -134.27685547 135.05029297 C-132.02731536 131.43812512 -129.69580495 127.87911877 -127.375 124.3125 C-124.37216329 119.68128487 -121.38466763 115.04192663 -118.4375 110.375 C-114.45078623 104.08677756 -110.30000539 97.90842519 -106.15478516 91.72412109 C-104.43221339 89.15228138 -102.71611802 86.57614957 -101 84 C-108.63816534 88.33008669 -116.23797927 92.71966737 -123.80908203 97.16601562 C-128.86244693 100.12846897 -133.92875414 103.06828345 -139 106 C-139.76618652 106.44504883 -140.53237305 106.89009766 -141.32177734 107.34863281 C-143.24688242 108.45844747 -145.18233304 109.54630092 -147.125 110.625 C-148.13820313 111.19476563 -149.15140625 111.76453125 -150.1953125 112.3515625 C-164.26892314 118.84202472 -177.9497093 118.56025678 -193.140625 118.4609375 C-195.55963035 118.45854952 -197.97863757 118.4576485 -200.39764404 118.4581604 C-205.43725387 118.45504929 -210.47657579 118.43860206 -215.51611328 118.41162109 C-221.98602025 118.37742399 -228.45561515 118.36999963 -234.92560196 118.37151146 C-239.90628047 118.37096912 -244.88689033 118.36002747 -249.86754608 118.34550858 C-252.2550581 118.33913553 -254.64257789 118.3352005 -257.03009796 118.33372116 C-260.3499547 118.32940599 -263.66947325 118.31194997 -266.98925781 118.29052734 C-267.97930313 118.29143372 -268.96934845 118.29234009 -269.98939514 118.29327393 C-270.88905502 118.28474396 -271.7887149 118.27621399 -272.71563721 118.26742554 C-273.49941364 118.26407385 -274.28319008 118.26072216 -275.09071732 118.25726891 C-277 118 -277 118 -279 116 C-279.125 113.375 -279.125 113.375 -279 111 C-271.42352449 106.99236623 -263.50576337 103.87605962 -255.5625 100.6875 C-253.39486181 99.81332079 -251.22766171 98.9380615 -249.06047058 98.06277466 C-247.64283378 97.49033887 -246.22503968 96.91829248 -244.80708313 96.34664917 C-239.63053068 94.25902161 -234.4674009 92.14055249 -229.3125 90 C-223.60398021 87.63455602 -217.85792229 85.38479536 -212.078125 83.19921875 C-207.85485213 81.55385736 -203.70539645 79.74661309 -199.55859375 77.91796875 C-197 77 -197 77 -193 77 C-193 76.34 -193 75.68 -193 75 C-192.28457031 74.78085937 -191.56914062 74.56171875 -190.83203125 74.3359375 C-189.83558594 74.01882813 -188.83914063 73.70171875 -187.8125 73.375 C-186.84957031 73.07335937 -185.88664062 72.77171875 -184.89453125 72.4609375 C-181.56119458 71.29451983 -178.41810041 69.81148751 -175.22705078 68.30175781 C-167.74772053 64.83251277 -160.13342888 61.75175224 -152.47265625 58.7109375 C-150.99356485 58.12080201 -149.51459955 57.53035037 -148.03575134 56.93960571 C-144.16061281 55.39257674 -140.28384409 53.84967655 -136.40667725 52.30773926 C-132.56507959 50.77918208 -128.72496596 49.24690724 -124.88476562 47.71484375 C-119.59544235 45.60501243 -114.30564669 43.49637419 -109.01519394 41.38937664 C-97.50630871 36.80569546 -86.00418211 32.20520992 -74.50317383 27.60180664 C-69.15139271 25.45985208 -63.79790398 23.32220882 -58.44343567 21.1869812 C-46.12348386 16.27164666 -33.83142484 11.28870647 -21.54541016 6.28930664 C-20.54947342 5.88404503 -20.54947342 5.88404503 -19.53341675 5.47059631 C-17.72497683 4.73455062 -15.91668264 3.99814691 -14.10839844 3.26171875 C-12.56974121 2.63716797 -12.56974121 2.63716797 -11 2 C-10.10700195 1.61714844 -9.21400391 1.23429687 -8.29394531 0.83984375 C-5.44309629 -0.20388982 -3.01083014 -0.14003861 0 0 Z " fill="#FAFAFB" transform="translate(570,255)"/>
<path d="M0 0 C1.19355606 -0.00700928 2.38711212 -0.01401855 3.61683655 -0.02124023 C7.51563582 -0.0386787 11.41369491 -0.0272533 15.3125 -0.01367188 C18.03963805 -0.01456509 20.76676336 -0.02024858 23.49389648 -0.02526855 C29.18595265 -0.03250781 34.87779989 -0.02304765 40.56982422 -0.00390625 C47.14178758 0.01793954 53.71325597 0.01074094 60.28520775 -0.01121187 C65.95008764 -0.02937281 71.61481881 -0.0319234 77.2797184 -0.0214572 C80.65392813 -0.01523672 84.02790503 -0.0143481 87.40209961 -0.02760315 C91.15512841 -0.03774576 94.90719898 -0.02230155 98.66015625 0 C99.77189713 -0.00809692 100.883638 -0.01619385 102.02906799 -0.02453613 C109.5240309 0.05809893 109.5240309 0.05809893 113.47827148 2.36242676 C115.78673135 5.07478261 116.25437901 7.10657972 116.75 10.61132812 C116.12847443 16.16066359 113.51171052 19.54715812 110.3125 24.01757812 C109.75949219 24.83355469 109.20648438 25.64953125 108.63671875 26.49023438 C102.35354013 35.48890169 95.02829437 42.33994554 84.1650238 45.05412292 C80.59954078 45.63341402 77.09745561 45.66206583 73.49633789 45.65942383 C72.72495987 45.66289825 71.95358185 45.66637268 71.15882874 45.66995239 C69.48974891 45.67728329 67.8206595 45.68264282 66.15156746 45.68624306 C63.50725103 45.69343527 60.86311729 45.70912116 58.21885681 45.72758484 C50.70265154 45.77993356 43.18654982 45.82804104 35.67016602 45.84350586 C31.06710458 45.85359594 26.46450874 45.8829408 21.86163139 45.92482567 C20.11103272 45.93712025 18.36036828 45.94225974 16.60972786 45.94002724 C14.15866606 45.93766994 11.70893792 45.95986968 9.25805664 45.98754883 C8.18010834 45.97764671 8.18010834 45.97764671 7.0803833 45.96754456 C2.02965865 46.06095144 -0.81968692 47.3146089 -4.6875 50.51757812 C-6.58663581 52.64723815 -6.58663581 52.64723815 -8.09765625 55.04101562 C-8.68305176 55.91854492 -9.26844727 56.79607422 -9.87158203 57.70019531 C-10.47083496 58.62993164 -11.07008789 59.55966797 -11.6875 60.51757812 C-12.30351074 61.46536133 -12.91952148 62.41314453 -13.55419922 63.38964844 C-15.42752459 66.29722074 -17.27957163 69.21723241 -19.125 72.14257812 C-19.76115234 73.14675781 -20.39730469 74.1509375 -21.05273438 75.18554688 C-22.5997684 77.62823218 -24.14465132 80.07224798 -25.6875 82.51757812 C-24.18532425 82.50425446 -24.18532425 82.50425446 -22.65280151 82.49066162 C-13.20696973 82.40951296 -3.76120884 82.34958258 5.68489265 82.31032944 C10.54105299 82.28947037 15.39693152 82.26118342 20.25292969 82.21582031 C24.94081256 82.17230262 29.62842468 82.14842837 34.31649399 82.13806915 C36.10345598 82.13068841 37.89040344 82.11627542 39.67724991 82.0946579 C42.18375718 82.06554468 44.68915115 82.06162535 47.19580078 82.06347656 C47.93163895 82.04909546 48.66747711 82.03471436 49.4256134 82.01989746 C55.5514101 82.0687289 59.06882109 84.27389921 63.3125 88.51757812 C64.27619785 93.55022246 63.13162284 96.34842021 60.5 100.70507812 C54.10450584 110.05929585 47.4816546 119.02264326 36.3125 122.51757812 C32.16611484 123.06546769 28.07349795 123.06512965 23.89550781 123.03515625 C22.68302872 123.04216553 21.47054962 123.0491748 20.22132874 123.05639648 C16.92182417 123.07090617 13.62296971 123.06761911 10.32347584 123.05488014 C6.85982295 123.04469374 3.39621089 123.05416052 -0.06744385 123.0604248 C-5.87756048 123.06768103 -11.68747301 123.05816297 -17.49755859 123.0390625 C-24.2080364 123.01725636 -30.91802874 123.02437996 -37.62849498 123.04636812 C-43.40369589 123.06453124 -49.1787509 123.0670773 -54.95397115 123.05661345 C-58.397544 123.0503887 -61.84088867 123.04951535 -65.28444672 123.0627594 C-69.1191848 123.07648115 -72.95338 123.05745338 -76.78808594 123.03515625 C-77.92481247 123.04325317 -79.061539 123.0513501 -80.23271179 123.05969238 C-87.89522039 122.97703676 -87.89522039 122.97703676 -91.86871338 120.67272949 C-95.09935365 116.84461755 -95.39945498 112.63838392 -95.3359375 107.77929688 C-94.09312074 101.52777885 -89.91385612 96.70939147 -86.21875 91.65869141 C-83.50833637 87.86877949 -81.01842656 83.9364993 -78.5 80.01757812 C-77.38880676 78.302225 -76.2768098 76.58739229 -75.1640625 74.87304688 C-74.5959082 73.99696777 -74.02775391 73.12088867 -73.44238281 72.21826172 C-71.66159022 69.47770418 -69.87481815 66.74114354 -68.0859375 64.00585938 C-60.72869558 52.75435152 -53.42785102 41.4703419 -46.22924805 30.11645508 C-33.76606612 10.53652677 -24.72720803 -0.18275283 0 0 Z " fill="#FBFBFB" transform="translate(294.6875,495.482421875)"/>
<path d="M0 0 C1.04878326 -0.00428513 2.09756653 -0.00857025 3.1781311 -0.01298523 C5.38502281 -0.01869885 7.59193333 -0.01925084 9.79882812 -0.01489258 C13.14746717 -0.0117344 16.49521995 -0.03522392 19.84375 -0.06054688 C21.9999989 -0.06282058 24.15625014 -0.06352304 26.3125 -0.0625 C27.29930756 -0.07170975 28.28611511 -0.08091949 29.30282593 -0.09040833 C42.48792804 -0.00406193 51.6700895 3.96247873 61.4140625 12.76953125 C70.00541432 22.00523446 70.94441813 33.75420122 70.95703125 45.65625 C70.96202385 47.30238029 70.96202385 47.30238029 70.96711731 48.98176575 C70.97217059 51.30074649 70.97452613 53.61973446 70.97436523 55.9387207 C70.97654414 59.45862048 70.99469631 62.97820279 71.01367188 66.49804688 C71.01660777 68.75911352 71.01859125 71.02018164 71.01953125 73.28125 C71.02671677 74.32121628 71.03390228 75.36118256 71.04130554 76.43266296 C70.99846083 90.370517 68.70249213 103.62109993 58.62054443 113.88589478 C49.45937098 121.69918632 38.86786662 123.19876642 27.2109375 123.02734375 C25.86484785 123.02630187 24.51875515 123.02735527 23.17266846 123.03036499 C20.37896093 123.03018749 17.58643121 123.00973041 14.79296875 122.97314453 C11.24028179 122.92759464 7.68929389 122.92673348 4.1363945 122.94017982 C1.36677339 122.94690763 -1.40247077 122.93351299 -4.17201996 122.91392136 C-6.10937893 122.90266157 -8.04680222 122.90506608 -9.98419189 122.90786743 C-20.41875586 122.74145102 -28.65182401 120.62035523 -36.390625 113.3671875 C-39.61170652 109.71063787 -41.95034711 105.59878272 -44.2109375 101.30078125 C-44.57445312 100.66527344 -44.93796875 100.02976562 -45.3125 99.375 C-47.26358555 94.87053727 -47.342074 90.02501224 -47.38793945 85.17871094 C-47.40077469 83.99017517 -47.41360992 82.8016394 -47.42683411 81.5770874 C-47.43422104 80.30512512 -47.44160797 79.03316284 -47.44921875 77.72265625 C-47.45329428 77.06765388 -47.4573698 76.41265152 -47.46156883 75.7378006 C-47.48235126 72.27035345 -47.49668629 68.80294496 -47.50610352 65.33544922 C-47.5171497 61.78050233 -47.55155046 58.22618443 -47.59127522 54.6714592 C-47.61759212 51.91397042 -47.62580856 49.15662824 -47.62938499 46.39902496 C-47.63653737 44.45934579 -47.66290595 42.51976751 -47.68977356 40.58026123 C-47.662978 29.57886236 -45.04120082 20.4303394 -37.30859375 12.30078125 C-26.78734204 2.24179895 -14.12228139 -0.01298993 0 0 Z " fill="#F8F8F8" transform="translate(1483.2109375,326.69921875)"/>
<path d="M0 0 C0.77120178 -0.0049649 1.54240356 -0.00992981 2.3369751 -0.01504517 C4.89270928 -0.02966631 7.44838121 -0.03647187 10.00415039 -0.04199219 C11.78715516 -0.04774761 13.57015992 -0.0535053 15.35316467 -0.05926514 C19.09823901 -0.06977769 22.84329189 -0.0756174 26.58837891 -0.07910156 C31.35934602 -0.08455964 36.13002389 -0.10852857 40.90090084 -0.13707352 C44.58922616 -0.15582008 48.27748383 -0.16091204 51.96585274 -0.16243744 C53.72270842 -0.165442 55.47956354 -0.17339516 57.23637199 -0.18662262 C82.59936848 -0.3638144 82.59936848 -0.3638144 91.41430664 7.16113281 C96.80272565 12.76086237 98.80653039 17.02184793 98.78930664 24.78613281 C98.78797729 25.85311401 98.78797729 25.85311401 98.78662109 26.94165039 C98.60631668 35.01324749 95.87596467 41.46864577 91.41430664 48.16113281 C91.83583008 48.62003906 92.25735352 49.07894531 92.69165039 49.55175781 C93.23950195 50.16535156 93.78735352 50.77894531 94.35180664 51.41113281 C94.89708008 52.01441406 95.44235352 52.61769531 96.00415039 53.23925781 C99.1822971 57.57069321 98.59762705 62.82855429 98.60180664 67.97363281 C98.61405273 68.75544922 98.62629883 69.53726563 98.63891602 70.34277344 C98.65782806 77.88867957 97.32997235 84.21059012 92.41430664 90.16113281 C85.2981277 95.66552763 78.47237897 97.46303123 69.61083984 97.43579102 C68.74671478 97.44090195 67.88258972 97.44601288 66.99227905 97.45127869 C64.14981066 97.46512508 61.30758589 97.46422245 58.46508789 97.46191406 C56.48544729 97.46580211 54.50580752 97.47013701 52.52616882 97.47489929 C48.38460581 97.48234964 44.24312807 97.48207763 40.1015625 97.47680664 C34.78834189 97.47099639 29.4754681 97.48798622 24.16230488 97.51115131 C20.07801771 97.52585936 15.9938148 97.52676466 11.90950584 97.52364159 C9.94984433 97.52415571 7.99017822 97.52941044 6.03054237 97.53945351 C3.29665915 97.55175152 0.56346158 97.54506774 -2.17041016 97.53344727 C-2.98241379 97.541091 -3.79441742 97.54873474 -4.63102722 97.55661011 C-10.13034 97.50478525 -10.13034 97.50478525 -12.29308224 95.87257671 C-14.54953527 92.88498616 -14.00034191 89.20646943 -13.97387695 85.60644531 C-13.97913391 84.73300476 -13.98439087 83.85956421 -13.98980713 82.95965576 C-14.0030266 80.06830031 -13.99426216 77.177494 -13.98413086 74.28613281 C-13.98615103 72.27978408 -13.989062 70.27343606 -13.99282837 68.26708984 C-13.99725436 64.06047582 -13.99081176 59.85405278 -13.97680664 55.64746094 C-13.95971466 50.25005898 -13.96955437 44.85310453 -13.98752403 39.45571899 C-13.9983544 35.31222144 -13.99491895 31.16883032 -13.98714066 27.02532959 C-13.98513658 25.03497261 -13.98760516 23.04460603 -13.99457932 21.05426025 C-14.00218147 18.27451913 -13.99060699 15.49550701 -13.97387695 12.71582031 C-13.97994965 11.88975281 -13.98602234 11.0636853 -13.99227905 10.21258545 C-13.92946694 4.59135041 -13.92946694 4.59135041 -12.24938393 2.48880005 C-8.58385263 -0.43638682 -4.4445841 0.00682689 0 0 Z " fill="#F9F8F9" transform="translate(1097.585693359375,480.8388671875)"/>
<path d="M0 0 C0.67045349 -0.00817749 1.34090698 -0.01635498 2.03167725 -0.02478027 C4.25312427 -0.04960587 6.4745069 -0.06615435 8.69604492 -0.08056641 C9.84067483 -0.08855192 9.84067483 -0.08855192 11.00842857 -0.09669876 C15.05752939 -0.12343435 19.10659952 -0.14279685 23.15576172 -0.15722656 C26.48351994 -0.17049165 29.81065412 -0.19820356 33.13818359 -0.23925781 C37.17475285 -0.28904905 41.21076223 -0.3134052 45.24762535 -0.32045364 C46.77400514 -0.32709726 48.30037589 -0.34213531 49.82657814 -0.36634445 C62.29265121 -0.55259773 74.71826882 1.0980771 84.68432617 9.39599609 C94.52842853 19.92689629 94.91319203 31.98359055 94.67651367 45.61865234 C94.28955867 55.33928436 91.10189633 63.13120002 84.36401367 70.19287109 C80.45546688 73.70979532 76.80926539 76.85254286 71.36401367 77.19287109 C74.05278277 82.00564501 76.90376355 86.62620874 79.98901367 91.19287109 C80.41561279 91.831521 80.84221191 92.4701709 81.28173828 93.12817383 C83.5604712 96.53607242 85.86540779 99.92332087 88.20385742 103.29052734 C88.66002441 103.95503906 89.11619141 104.61955078 89.58618164 105.30419922 C90.4579597 106.5732794 91.33809079 107.83667551 92.2277832 109.09326172 C94.72817503 112.75197554 96.20192025 115.72557635 96.36401367 120.19287109 C92.93722156 123.61966321 88.1347898 122.56196795 83.48901367 122.56787109 C82.48225586 122.59236328 81.47549805 122.61685547 80.43823242 122.64208984 C73.10419261 122.67130913 73.10419261 122.67130913 69.98901367 120.65771484 C69.45276367 119.84431641 68.91651367 119.03091797 68.36401367 118.19287109 C67.79142822 117.36094238 67.79142822 117.36094238 67.20727539 116.51220703 C65.83972874 114.49431137 64.53667289 112.44385061 63.23901367 110.38037109 C62.27004696 108.85754452 61.29997048 107.33542359 60.32885742 105.81396484 C59.83885254 105.04552246 59.34884766 104.27708008 58.84399414 103.48535156 C56.14830886 99.30975197 53.35266926 95.1995059 50.53735352 91.10375977 C48.30286543 87.80300103 46.86902934 84.95541025 45.36401367 81.19287109 C33.81401367 81.19287109 22.26401367 81.19287109 10.36401367 81.19287109 C10.33823242 83.81740234 10.31245117 86.44193359 10.28588867 89.14599609 C10.24746275 91.69118929 10.20230445 94.23618027 10.15649414 96.78125 C10.1282897 98.5484042 10.10707249 100.31568443 10.09301758 102.08300781 C10.07158009 104.62549332 10.02492864 107.16646447 9.97338867 109.70849609 C9.97154572 110.89152313 9.97154572 110.89152313 9.96966553 112.09844971 C9.87530677 115.64177058 9.65821205 117.78913287 7.54443359 120.68994141 C4.33934309 122.89916066 1.77754236 122.72340452 -2.07348633 122.69287109 C-3.37157227 122.70318359 -4.6696582 122.71349609 -6.00708008 122.72412109 C-10.36066535 122.08678245 -11.72902485 121.49239679 -14.63598633 118.19287109 C-15.39798252 114.6859142 -15.31865738 111.22145748 -15.28295898 107.64453125 C-15.29172058 106.57093857 -15.30048218 105.49734589 -15.30950928 104.39122009 C-15.33153831 100.83771495 -15.31693478 97.28545169 -15.30004883 93.73193359 C-15.30341642 91.26337444 -15.30826855 88.7948169 -15.31454468 86.32626343 C-15.32192123 81.14947747 -15.3111864 75.9731226 -15.2878418 70.79638672 C-15.25938434 64.16264754 -15.27573524 57.52992108 -15.30570412 50.89621925 C-15.32378086 45.79692979 -15.31801659 40.69787995 -15.30506516 35.59858322 C-15.30173069 33.15296687 -15.30581959 30.70732873 -15.31746292 28.26173782 C-15.33017353 24.84057363 -15.31078729 21.42104268 -15.28295898 18 C-15.29308014 16.98992386 -15.30320129 15.97984772 -15.31362915 14.93916321 C-15.2459343 10.44299225 -15.13540779 7.19157227 -12.28305054 3.57992554 C-8.26251485 -0.04569017 -5.24054052 0.05558766 0 0 Z " fill="#F8F8F8" transform="translate(1581.635986328125,326.80712890625)"/>
<path d="M0 0 C0.78288391 -0.00671722 1.56576782 -0.01343445 2.37237549 -0.02035522 C4.94550008 -0.03926541 7.51836311 -0.0432552 10.09155273 -0.04541016 C11.88704026 -0.05184059 13.68252674 -0.05856914 15.47801208 -0.06558228 C19.23455232 -0.07753585 22.99100069 -0.08126484 26.74755859 -0.08007812 C31.55848049 -0.07987451 36.36881453 -0.10722942 41.1795969 -0.14162254 C44.88480839 -0.1638633 48.58987744 -0.16791661 52.29514885 -0.16685867 C54.06895927 -0.16921686 55.8427735 -0.17805264 57.61651802 -0.19352341 C60.09632784 -0.21313617 62.57485673 -0.20736572 65.0546875 -0.1953125 C65.78469467 -0.20655151 66.51470184 -0.21779053 67.26683044 -0.22937012 C72.10451899 -0.1696668 74.56824935 0.85283158 77.96264648 4.29052734 C80.0569757 8.47918577 79.52677488 13.7411048 78.96264648 18.29052734 C77.54052933 20.74457789 76.32881372 21.61689686 73.96264648 23.29052734 C73.46764648 23.78552734 73.46764648 23.78552734 72.96264648 24.29052734 C70.72407292 24.41464317 68.48159164 24.46855758 66.23974609 24.49584961 C65.53734299 24.50574921 64.83493988 24.5156488 64.11125183 24.52584839 C61.77919944 24.55754856 59.44712664 24.58225423 57.11499023 24.60693359 C55.50215614 24.62749579 53.88932752 24.64849205 52.27650452 24.66990662 C48.02355373 24.72520326 43.77055371 24.7745789 39.51751709 24.82275391 C35.18082273 24.87291365 30.84420022 24.9286285 26.50756836 24.98388672 C17.99265339 25.09156111 9.47767767 25.19247222 0.96264648 25.29052734 C0.96264648 33.21052734 0.96264648 41.13052734 0.96264648 49.29052734 C3.92237427 49.29669067 3.92237427 49.29669067 6.94189453 49.30297852 C13.46802102 49.3223899 19.9936856 49.36471808 26.51957989 49.42261791 C30.47553242 49.45688002 34.43109911 49.48199657 38.38720703 49.48608398 C42.20660127 49.49036879 46.02512527 49.51884479 49.84424782 49.56395912 C51.29980204 49.57692861 52.75546044 49.58124368 54.21106529 49.57668114 C56.25380268 49.57177038 58.29400103 49.59787883 60.33642578 49.63110352 C62.07849556 49.64109627 62.07849556 49.64109627 63.85575867 49.65129089 C67.90075625 50.4835417 69.40771228 52.113787 71.96264648 55.29052734 C72.59155273 58.22802734 72.59155273 58.22802734 72.52514648 61.29052734 C72.52643555 62.30115234 72.52772461 63.31177734 72.52905273 64.35302734 C71.8117386 68.07316686 70.64348604 69.62554544 67.96264648 72.29052734 C64.98274231 72.92303467 64.98274231 72.92303467 61.46582031 72.93408203 C60.1479805 72.95049744 58.83014069 72.96691284 57.47236633 72.98382568 C56.03813496 72.97706464 54.60390537 72.96991433 53.16967773 72.96240234 C51.69803567 72.97298143 50.22640868 72.98589267 48.75480652 73.0010376 C44.88680775 73.03523636 41.01931345 73.04062006 37.15118408 73.03912354 C31.68847588 73.04235101 26.2259078 73.08496247 20.76335144 73.12286377 C17.854196 73.14293131 14.94530885 73.15221387 12.03608704 73.15301514 C10.7277037 73.1568219 9.41932037 73.16062866 8.07128906 73.16455078 C6.33399284 73.16524567 6.33399284 73.16524567 4.56159973 73.16595459 C2.03385574 72.99517082 2.03385574 72.99517082 0.96264648 74.29052734 C0.86318196 76.05911927 0.83184431 77.83164185 0.82983398 79.60302734 C0.82854492 80.67810547 0.82725586 81.75318359 0.82592773 82.86083984 C0.83172852 84.55853516 0.83172852 84.55853516 0.83764648 86.29052734 C0.8337793 87.42232422 0.82991211 88.55412109 0.82592773 89.72021484 C0.82786133 91.33283203 0.82786133 91.33283203 0.82983398 92.97802734 C0.83096191 93.97189453 0.83208984 94.96576172 0.83325195 95.98974609 C0.70430318 98.2542796 0.70430318 98.2542796 1.96264648 99.29052734 C4.21635324 99.39886412 6.47345598 99.43684174 8.72973633 99.44824219 C9.43707413 99.45332291 10.14441193 99.45840363 10.8731842 99.46363831 C12.41410445 99.47436368 13.95504048 99.48297531 15.49598312 99.48975754 C17.93332917 99.50151184 20.37049523 99.52095542 22.80776978 99.5428772 C29.73921743 99.60461017 36.67064803 99.65856234 43.60229492 99.69189453 C47.83758922 99.71281287 52.07255811 99.74809484 56.30766678 99.79265213 C57.92397867 99.8068375 59.54034817 99.81554028 61.15671921 99.81870651 C63.41708271 99.82360256 65.67657949 99.84672551 67.93676758 99.87402344 C69.86750626 99.88615372 69.86750626 99.88615372 71.83724976 99.89852905 C74.96264648 100.29052734 74.96264648 100.29052734 76.87905884 101.59976196 C78.69614334 104.43503198 78.35258016 107.53831291 78.27514648 110.79052734 C78.27836914 111.46728516 78.2815918 112.14404297 78.28491211 112.84130859 C78.24494817 116.52525748 78.05459346 118.15260689 75.96264648 121.29052734 C72.32668829 122.50251341 68.99110542 122.43809369 65.20581055 122.43579102 C64.41682373 122.43914963 63.62783691 122.44250824 62.81494141 122.44596863 C60.20270213 122.45547852 57.590527 122.45742198 54.97827148 122.45849609 C53.16086806 122.46170943 51.34346489 122.46507356 49.52606201 122.46858215 C45.71292522 122.47457407 41.89981109 122.47642207 38.08666992 122.47583008 C33.20990196 122.47572863 28.33328016 122.48936251 23.45654678 122.50660229 C19.70065652 122.517745 15.94480128 122.51974856 12.18889618 122.51922035 C10.3916346 122.52039775 8.59437204 122.52480599 6.79712677 122.53255272 C4.27700211 122.54239532 1.75719069 122.53945744 -0.76293945 122.53344727 C-1.49981995 122.53906677 -2.23670044 122.54468628 -2.99591064 122.55047607 C-8.93472426 122.51464671 -14.01819882 121.85078324 -18.78735352 118.16552734 C-23.69464977 111.89509323 -24.48447713 105.66030493 -24.45727539 97.97216797 C-24.46574493 97.07676804 -24.47421448 96.1813681 -24.48294067 95.25883484 C-24.50619535 92.32133488 -24.50733576 89.38436208 -24.50610352 86.44677734 C-24.51321083 84.39229119 -24.52091066 82.33780702 -24.5291748 80.2833252 C-24.54259224 75.98635329 -24.54420013 71.68956506 -24.53833008 67.39257812 C-24.53242935 61.8980891 -24.56305424 56.40448226 -24.60344696 50.91016388 C-24.6293461 46.67038256 -24.63219948 42.43081326 -24.6285553 38.19096375 C-24.63024371 36.16564208 -24.63985932 34.14031032 -24.65769958 32.11506653 C-24.67993877 29.27907829 -24.67016318 26.44487103 -24.65258789 23.60888672 C-24.66585114 22.7805986 -24.67911438 21.95231049 -24.69277954 21.09892273 C-24.5884122 13.81801101 -21.76815083 8.95130422 -16.59985352 3.91552734 C-11.28200557 0.54323352 -6.17541932 -0.00768868 0 0 Z " fill="#F9F9F9" transform="translate(1026.037353515625,326.70947265625)"/>
<path d="M0 0 C1.17147835 -0.01226624 1.17147835 -0.01226624 2.36662292 -0.02478027 C4.94574224 -0.04955106 7.52480692 -0.06612667 10.10400391 -0.08056641 C10.98648426 -0.08589008 11.86896461 -0.09121376 12.7781868 -0.09669876 C17.44700501 -0.123391 22.11579681 -0.14278057 26.78466797 -0.15722656 C30.64525989 -0.17057797 34.50532479 -0.19845799 38.36572266 -0.23925781 C43.03232971 -0.28857299 47.69845798 -0.31334558 52.36531448 -0.32045364 C54.14112198 -0.32716405 55.91691888 -0.34238073 57.69257736 -0.36634445 C60.17973203 -0.39800232 62.66504009 -0.39803287 65.15234375 -0.390625 C66.24667473 -0.415233 66.24667473 -0.415233 67.3631134 -0.44033813 C71.19124718 -0.39378314 73.6871888 0.19070275 76.66348267 2.51620483 C79.20556641 5.19287109 79.20556641 5.19287109 79.93212891 8.60302734 C79.89861328 9.80830078 79.86509766 11.01357422 79.83056641 12.25537109 C79.82283203 13.46322266 79.81509766 14.67107422 79.80712891 15.91552734 C79.11213713 19.70187865 78.2356845 20.89549065 75.20556641 23.19287109 C71.77159125 24.33752948 69.06195286 24.35266516 65.43920898 24.39819336 C64.75602097 24.40809296 64.07283295 24.41799255 63.36894226 24.42819214 C61.11269587 24.45975788 58.85642844 24.484545 56.60009766 24.50927734 C55.03496252 24.52985113 53.46983289 24.55084772 51.90470886 24.57225037 C47.78659525 24.62742719 43.66843185 24.6768558 39.55023193 24.72509766 C35.34740777 24.77534474 31.14465583 24.83101406 26.94189453 24.88623047 C18.69651291 24.99375835 10.45107083 25.09521522 2.20556641 25.19287109 C2.17669404 29.00535535 2.15881149 32.81781179 2.14306641 36.63037109 C2.1346875 37.71898437 2.12630859 38.80759766 2.11767578 39.92919922 C2.11445312 40.96367187 2.11123047 41.99814453 2.10791016 43.06396484 C2.10267334 44.02230225 2.09743652 44.98063965 2.09204102 45.96801758 C1.9550351 48.16572449 1.9550351 48.16572449 3.20556641 49.19287109 C5.2039574 49.29033378 7.2057769 49.31803277 9.20654297 49.31884766 C10.49167786 49.32265442 11.77681274 49.32646118 13.10089111 49.3303833 C14.13807156 49.3306741 14.13807156 49.3306741 15.19620514 49.33097076 C18.09696295 49.33437793 20.99749493 49.35573335 23.89817429 49.37620163 C29.30291342 49.414255 34.70741646 49.44548924 40.11230469 49.44335938 C43.8679769 49.44257157 47.62282998 49.46596803 51.37828827 49.50524139 C52.80873683 49.51569711 54.23928001 49.51722845 55.6697464 49.50959015 C57.67552206 49.49995204 59.68137335 49.5239467 61.68701172 49.54931641 C62.82761047 49.55296204 63.96820923 49.55660767 65.14337158 49.56036377 C69.15937252 50.38988317 70.66765281 52.04020824 73.20556641 55.19287109 C73.79931641 58.16552734 73.79931641 58.16552734 73.70556641 61.25537109 C73.69525391 62.27759766 73.68494141 63.29982422 73.67431641 64.35302734 C73.15311507 67.51063879 72.4298579 68.92136587 70.20556641 71.19287109 C66.92693538 72.2857481 64.45821932 72.3439561 61.00585938 72.38232422 C59.08904861 72.40740051 59.08904861 72.40740051 57.1335144 72.4329834 C56.45136745 72.43966537 55.7692205 72.44634735 55.06640244 72.45323181 C52.93189413 72.47427747 50.7975359 72.50129596 48.66311646 72.52990723 C43.36459827 72.59970074 38.06597386 72.65923603 32.76733398 72.71893311 C28.28591555 72.76978827 23.80457979 72.82457403 19.32327652 72.88475037 C17.21545081 72.91139737 15.10761764 72.93216374 12.99972534 72.95275879 C11.72815582 72.96947632 10.4565863 72.98619385 9.14648438 73.00341797 C7.45795853 73.02221008 7.45795853 73.02221008 5.73532104 73.04138184 C3.26895414 72.90829189 3.26895414 72.90829189 2.20556641 74.19287109 C2.10610188 75.96146302 2.07476423 77.7339856 2.07275391 79.50537109 C2.07146484 80.58044922 2.07017578 81.65552734 2.06884766 82.76318359 C2.07464844 84.46087891 2.07464844 84.46087891 2.08056641 86.19287109 C2.07669922 87.32466797 2.07283203 88.45646484 2.06884766 89.62255859 C2.07078125 91.23517578 2.07078125 91.23517578 2.07275391 92.88037109 C2.07388184 93.87423828 2.07500977 94.86810547 2.07617188 95.89208984 C1.94722311 98.15662335 1.94722311 98.15662335 3.20556641 99.19287109 C5.42361868 99.29061946 7.64478529 99.31803446 9.86499023 99.31884766 C10.56096817 99.32071579 11.25694611 99.32258392 11.97401428 99.32450867 C13.49038636 99.32852172 15.00676452 99.33058833 16.52314186 99.33097076 C19.74452937 99.33437533 22.96571304 99.35572515 26.18702984 99.37620163 C32.19038686 99.41428058 38.19353007 99.44548621 44.19702148 99.44335938 C48.36762251 99.44257285 52.53748358 99.46591237 56.70789146 99.50524139 C58.29826215 99.51571533 59.8887181 99.51721512 61.479105 99.50959015 C63.70620482 99.49997963 65.93106178 99.5211246 68.15795898 99.54931641 C69.4251326 99.55296204 70.69230621 99.55660767 71.99787903 99.56036377 C75.20556641 100.19287109 75.20556641 100.19287109 77.61723328 102.54730225 C79.51527389 105.70872791 79.68242402 107.59312699 79.58056641 111.25537109 C79.56767578 112.27759766 79.55478516 113.29982422 79.54150391 114.35302734 C79.21123368 117.14496285 78.73058251 118.85126836 77.20556641 121.19287109 C74.00639182 122.79245839 70.52736142 122.37613389 67.01147461 122.40161133 C66.1641124 122.41139511 65.31675018 122.42117889 64.44371033 122.43125916 C61.63127214 122.46124325 58.8188817 122.48260911 56.00634766 122.50146484 C54.56590623 122.51132258 54.56590623 122.51132258 53.09636497 122.52137947 C48.01144255 122.55398931 42.92654119 122.57843391 37.84155273 122.59790039 C33.63453621 122.61570296 29.42819129 122.650504 25.22143555 122.70043945 C20.14214525 122.76066423 15.06347702 122.79137973 9.98384666 122.80107307 C8.04975337 122.80962673 6.11567663 122.82844266 4.18178749 122.8578167 C1.46933502 122.89679143 -1.24070243 122.89775834 -3.95336914 122.88989258 C-4.74792511 122.90989319 -5.54248108 122.9298938 -6.3611145 122.95050049 C-11.64142503 122.88199897 -14.565938 121.57960335 -18.3490181 117.8656702 C-23.01826672 112.46188495 -23.23349475 107.51529909 -23.19848633 100.70263672 C-23.2087812 99.2966346 -23.2087812 99.2966346 -23.21928406 97.86222839 C-23.23753457 94.7743704 -23.23371739 91.68702127 -23.22802734 88.59912109 C-23.23258958 86.44730464 -23.23789528 84.29548964 -23.24391174 82.14367676 C-23.25283912 77.63804192 -23.25042341 73.13258437 -23.24047852 68.62695312 C-23.2289823 62.85656317 -23.24921261 57.08678456 -23.27839565 51.31647491 C-23.29675036 46.87432985 -23.29646674 42.43233155 -23.29075813 37.99015808 C-23.29060487 35.86271812 -23.29665346 33.73526824 -23.30904961 31.60786438 C-23.32394578 28.6325554 -23.31329265 25.65837926 -23.29614258 22.68310547 C-23.30581055 21.80708176 -23.31547852 20.93105804 -23.32543945 20.02848816 C-23.2482708 13.62728323 -21.50446104 10.02770244 -17.01318359 5.32958984 C-16.44599609 4.85134766 -15.87880859 4.37310547 -15.29443359 3.88037109 C-14.72724609 3.38923828 -14.16005859 2.89810547 -13.57568359 2.39208984 C-9.4728818 -0.37010347 -4.7815878 0.02776615 0 0 Z " fill="#F9F8F9" transform="translate(806.79443359375,326.80712890625)"/>
<path d="M0 0 C1.68006501 -0.00643738 3.36012892 -0.01316643 5.04019165 -0.02017212 C8.54163212 -0.03208123 12.04297433 -0.03585886 15.54443359 -0.03466797 C20.03026364 -0.03446356 24.51546884 -0.06191903 29.00115013 -0.09621239 C32.46183174 -0.11842742 35.92236061 -0.12250741 39.38310623 -0.12144852 C41.03772793 -0.12380671 42.6923537 -0.13264257 44.34690475 -0.14811325 C46.65408595 -0.16769243 48.95988683 -0.16197155 51.26708984 -0.14990234 C53.23372086 -0.1541774 53.23372086 -0.1541774 55.24008179 -0.15853882 C58.5390625 0.3359375 58.5390625 0.3359375 60.96255493 2.18441772 C63.05355606 5.03808641 63.04176888 6.89033414 62.9765625 10.3984375 C62.97527344 11.44128906 62.97398438 12.48414063 62.97265625 13.55859375 C62.5390625 16.3359375 62.5390625 16.3359375 61.4289093 17.98547363 C58.60687945 20.00206532 56.30917739 19.71490237 52.86791992 19.72070312 C52.19436966 19.7260759 51.5208194 19.73144867 50.82685852 19.73698425 C49.36511795 19.74676272 47.90331933 19.74970617 46.4415493 19.74662781 C44.12483949 19.74214943 41.80889353 19.75615098 39.49226379 19.77502441 C34.57037591 19.81182397 29.64856768 19.82551181 24.7265625 19.8359375 C19.03227945 19.84802727 13.33836755 19.86966205 7.64425087 19.91593933 C5.36751729 19.9294765 3.09125672 19.92534398 0.8144989 19.92053223 C-0.59087721 19.92987823 -1.99624816 19.9400484 -3.40161133 19.95117188 C-5.23336662 19.95425354 -5.23336662 19.95425354 -7.10212708 19.95739746 C-11.00032985 20.39672736 -14.60955049 21.48455049 -17.4609375 24.3359375 C-17.73799538 26.59704556 -17.73799538 26.59704556 -17.7734375 29.2109375 C-17.81082031 30.09523438 -17.84820313 30.97953125 -17.88671875 31.890625 C-17.69184291 34.43435765 -17.69184291 34.43435765 -15.77032471 35.96372986 C-12.98753594 37.61722651 -11.30768783 37.7192626 -8.08496094 37.73657227 C-6.47243439 37.75658043 -6.47243439 37.75658043 -4.82733154 37.7769928 C-3.67001526 37.77710861 -2.51269897 37.77722443 -1.3203125 37.77734375 C-0.12416321 37.79055161 1.07198608 37.80375946 2.30438232 37.81736755 C6.13263241 37.85829698 9.96064306 37.87993227 13.7890625 37.8984375 C17.60312529 37.92227238 21.41696405 37.9505107 25.230896 37.99021912 C27.60374166 38.01444463 29.97670519 38.02940986 32.34967041 38.03382874 C43.14098285 38.13489924 53.83998933 39.9291245 61.9765625 47.6484375 C65.91340393 54.41980476 67.02472349 60.19520328 66.9140625 67.8984375 C66.92566406 68.70990234 66.93726563 69.52136719 66.94921875 70.35742188 C66.90698075 79.07956821 63.64066222 86.05688633 57.5390625 92.3359375 C51.05676586 96.68244854 44.96116707 97.48483807 37.28222656 97.44946289 C36.03777016 97.44968193 36.03777016 97.44968193 34.76817322 97.4499054 C32.0303179 97.44920962 29.29253091 97.44143289 26.5546875 97.43359375 C24.65468381 97.43172838 22.75467964 97.43030504 20.85467529 97.42930603 C15.85698109 97.42549023 10.85931601 97.41566791 5.8616333 97.40460205 C0.76062412 97.39436781 -4.34038976 97.38980409 -9.44140625 97.38476562 C-19.44792945 97.37404482 -29.45443105 97.35697962 -39.4609375 97.3359375 C-42.21494083 91.98700849 -43.02739017 89.28369052 -42.4609375 83.3359375 C-41.30461004 80.97300748 -40.31109995 79.18609995 -38.4609375 77.3359375 C-36.11464844 77.23758717 -33.79698117 77.20291338 -31.45019531 77.20996094 C-30.35011642 77.20715874 -30.35011642 77.20715874 -29.22781372 77.20429993 C-27.62959394 77.20028639 -26.03136839 77.19822022 -24.43314362 77.19783783 C-21.03644151 77.1944327 -17.63993263 77.17308078 -14.24329758 77.15260696 C-7.91347558 77.11453745 -1.58385565 77.08332079 4.74609375 77.08544922 C9.14361782 77.08623635 13.54044116 77.06286884 17.93778229 77.0235672 C19.61385193 77.01310174 21.2900024 77.01158723 22.96608734 77.01921844 C25.31507545 77.02884349 27.6619453 77.00765449 30.01074219 76.97949219 C30.70185089 76.98968887 31.39295959 76.99988556 32.10501099 77.01039124 C35.93494282 76.92818499 37.46162451 76.39926886 40.46807861 73.94049072 C42.61883736 71.23560941 43.22301164 70.16301294 43.1640625 66.7734375 C43.17695312 66.02964844 43.18984375 65.28585937 43.203125 64.51953125 C42.13471883 61.00636039 40.7327248 60.19930775 37.5390625 58.3359375 C33.35158594 57.75137193 29.19055182 57.8269099 24.96875 57.8671875 C23.73673859 57.86013794 22.50472717 57.85308838 21.23538208 57.8458252 C15.97256682 57.81636937 10.71012188 57.83290634 5.44726562 57.84521484 C1.60003896 57.84760859 -2.24659691 57.82659879 -6.09375 57.8046875 C-7.26809601 57.81600708 -8.44244202 57.82732666 -9.65237427 57.83898926 C-19.2643315 57.78078246 -29.03721722 55.87588156 -36.4609375 49.3359375 C-42.40756531 40.71575768 -43.14626658 32.6525877 -42.4609375 22.3359375 C-41.00766876 15.12302281 -38.00175703 8.85362748 -31.8359375 4.5859375 C-22.10872716 -0.82534973 -10.80406813 0.00976965 0 0 Z " fill="#F8F7F8" transform="translate(1279.4609375,480.6640625)"/>
<path d="M0 0 C1.80017578 -0.03867187 1.80017578 -0.03867187 3.63671875 -0.078125 C7.72975718 0.28724719 11.02094842 0.74590325 14.3125 3.25 C16.72936862 6.36629517 18.4958583 9.75838265 20.3125 13.25 C21.44394621 15.33727439 22.57545942 17.42451246 23.70703125 19.51171875 C24.29307129 20.6104834 24.87911133 21.70924805 25.48291016 22.84130859 C28.58495361 28.62069619 31.80182033 34.33595039 35 40.0625 C38.38624118 46.15799186 41.76648088 52.25677034 45.1328125 58.36328125 C54.26830443 75.07898101 54.26830443 75.07898101 64.3125 91.25 C63.77195946 95.79054054 63.77195946 95.79054054 62.3125 97.25 C44.61210605 99.72596779 44.61210605 99.72596779 38.76171875 95.3359375 C37.23588724 92.6790988 36.31566595 90.14516644 35.3125 87.25 C33.6625 84.28 32.0125 81.31 30.3125 78.25 C10.5125 78.25 -9.2875 78.25 -29.6875 78.25 C-32.6575 83.53 -35.6275 88.81 -38.6875 94.25 C-41.6875 97.25 -41.6875 97.25 -43.74047852 97.62231445 C-44.50803467 97.6193335 -45.27559082 97.61635254 -46.06640625 97.61328125 C-46.90494141 97.61263672 -47.74347656 97.61199219 -48.60742188 97.61132812 C-49.91549805 97.5871582 -49.91549805 97.5871582 -51.25 97.5625 C-52.12591797 97.56572266 -53.00183594 97.56894531 -53.90429688 97.57226562 C-60.42041319 97.51708681 -60.42041319 97.51708681 -62.6875 95.25 C-62.6577983 89.00274219 -58.93130785 83.90796654 -55.875 78.6875 C-55.29041016 77.67171875 -54.70582031 76.6559375 -54.10351562 75.609375 C-52.8921743 73.50553516 -51.67713814 71.40381858 -50.45849609 69.30419922 C-47.84598895 64.79875886 -45.26796788 60.2738367 -42.6875 55.75 C-41.71226862 54.0455563 -40.73700784 52.34112943 -39.76171875 50.63671875 C-36.32453937 44.62137411 -32.91013311 38.5932095 -29.5 32.5625 C-28.93474609 31.56347656 -28.36949219 30.56445312 -27.78710938 29.53515625 C-27.26568359 28.6121875 -26.74425781 27.68921875 -26.20703125 26.73828125 C-25.74401611 25.91884033 -25.28100098 25.09939941 -24.80395508 24.25512695 C-24.06938835 22.93586245 -23.3627847 21.60056939 -22.6875 20.25 C-22.0275 20.25 -21.3675 20.25 -20.6875 20.25 C-20.57921875 19.52941406 -20.4709375 18.80882812 -20.359375 18.06640625 C-18.76267719 11.37327182 -14.49370739 4.95952139 -8.6875 1.25 C-5.79205785 -0.19772108 -3.2261962 0.04114172 0 0 Z " fill="#F7F6F7" transform="translate(980.6875,480.75)"/>
<path d="M0 0 C1.1456543 -0.00483398 1.1456543 -0.00483398 2.31445312 -0.00976562 C9.42745332 0.05833098 9.42745332 0.05833098 12.5625 2.3125 C13.99355406 4.69881952 15.2039699 6.97602205 16.375 9.484375 C16.72046875 10.20042908 17.0659375 10.91648315 17.421875 11.65423584 C18.48351188 13.8670123 19.52576011 16.08796377 20.5625 18.3125 C21.01761963 19.28255981 21.01761963 19.28255981 21.48193359 20.2722168 C23.54724878 24.68511077 25.55937111 29.12111376 27.5625 33.5625 C28.19731722 34.96232692 28.83233206 36.36206423 29.4675293 37.76171875 C33.03111584 45.62824441 36.54255547 53.5167066 40.01953125 61.421875 C40.7545524 63.08952039 41.48957839 64.75716364 42.22460938 66.42480469 C43.64393072 69.6460401 45.05393349 72.87115123 46.45898438 76.09863281 C47.10389387 77.56587514 47.74906244 79.03300364 48.39453125 80.5 C48.68656937 81.17754333 48.97860748 81.85508667 49.27949524 82.55316162 C50.6723787 86.0850135 50.6723787 86.0850135 53.5625 88.3125 C55.99838475 83.17565007 58.43365684 78.03851027 60.8684082 72.90112305 C61.69344304 71.16048708 62.51863335 69.41992479 63.34399414 67.67944336 C67.30642107 59.32341963 71.26698539 50.96695179 75.16796875 42.58203125 C78.51349727 35.40082781 81.90171413 28.24100484 85.33447266 21.10107422 C85.99621077 19.72176488 86.65531854 18.34119103 87.31201172 16.95947266 C88.28012297 14.92316614 89.25631755 12.89091931 90.234375 10.859375 C90.8025293 9.67182617 91.37068359 8.48427734 91.95605469 7.26074219 C94.10034195 3.32542106 95.30696556 1.73101148 99.5625 0.3125 C102.01701334 0.14040194 104.47738918 0.04591562 106.9375 0 C108.24460937 -0.03738281 109.55171875 -0.07476562 110.8984375 -0.11328125 C115.04149775 0.36816179 116.62466603 1.43705247 119.5625 4.3125 C119.07543067 10.59145901 116.18433453 15.70071991 113.4375 21.25 C112.3502474 23.47916032 111.26300848 25.70832731 110.17578125 27.9375 C109.58821886 29.13549784 109.00048698 30.33341256 108.41259766 31.53125 C106.46091905 35.51314927 104.53172135 39.5057518 102.60546875 43.5 C101.93701629 44.88550025 101.26855928 46.27099831 100.60009766 47.65649414 C100.10790741 48.67672165 100.10790741 48.67672165 99.60577393 49.71755981 C91.6079631 66.29127951 91.6079631 66.29127951 87.54833984 74.30737305 C86.68051147 76.07247321 85.8957544 77.87790272 85.125 79.6875 C83.27891492 83.9704174 81.18299484 88.09736428 79.0625 92.25 C77.74590941 94.93803913 76.57078005 97.65571827 75.40625 100.41162109 C73.78513042 104.06383088 71.92082634 107.58927348 70.0625 111.125 C69.67191406 111.88748047 69.28132813 112.64996094 68.87890625 113.43554688 C68.49605469 114.16451172 68.11320312 114.89347656 67.71875 115.64453125 C67.37650391 116.30171143 67.03425781 116.9588916 66.68164062 117.63598633 C65.5625 119.3125 65.5625 119.3125 62.5625 121.3125 C59.28790526 121.81569733 55.99664691 121.77484257 52.6875 121.8125 C51.78902344 121.85375 50.89054687 121.895 49.96484375 121.9375 C49.09214844 121.9478125 48.21945312 121.958125 47.3203125 121.96875 C46.5277002 121.98744141 45.73508789 122.00613281 44.91845703 122.02539062 C40.11573467 120.57213163 37.93175111 115.99206296 35.66894531 111.82763672 C35.06696149 110.55346452 34.47456525 109.27472916 33.890625 107.9921875 C33.56721634 107.30078674 33.24380768 106.60938599 32.91059875 105.89703369 C31.86910427 103.66449024 30.84064995 101.426216 29.8125 99.1875 C29.08784018 97.62712451 28.36249361 96.06706777 27.63647461 94.50732422 C23.73846523 86.11553623 19.90109714 77.69727237 16.14990234 69.23876953 C11.53952488 58.90798919 6.63028722 48.71245584 1.76391602 38.50048828 C-0.32341432 34.1138254 -2.38737223 29.71666089 -4.4375 25.3125 C-4.7826062 24.57523682 -5.1277124 23.83797363 -5.48327637 23.07836914 C-6.48886445 20.9173211 -7.47737135 18.74927025 -8.4609375 16.578125 C-8.91335312 15.61153961 -8.91335312 15.61153961 -9.37490845 14.62542725 C-11.12701965 10.69798894 -11.83546235 7.60427398 -11.4375 3.3125 C-9.15443486 -1.04274475 -4.31023231 -0.09047507 0 0 Z " fill="#F8F8F8" transform="translate(1124.4375,327.6875)"/>
<path d="M0 0 C1.37285156 -0.05607422 1.37285156 -0.05607422 2.7734375 -0.11328125 C6.55219022 0.45094347 9.03266975 1.55254733 11.625 4.3125 C13.74314564 7.85377474 15.33014207 11.5797592 16.9375 15.375 C17.89197549 17.5461245 18.84772166 19.71669078 19.8046875 21.88671875 C20.27616211 22.96872559 20.74763672 24.05073242 21.23339844 25.16552734 C23.2472493 29.71965676 25.39992993 34.20262457 27.5625 38.6875 C30.16531076 44.13122466 32.64068406 49.57388365 34.8125 55.20703125 C37.1804872 61.34330577 40.02509578 67.1082629 43.1875 72.875 C45.10904412 76.38763162 46.92900089 79.78066827 48.25 83.5625 C49.64992516 87.38047771 51.42231061 90.64947624 53.4375 94.1640625 C55.06995452 97.1175164 56.31606315 100.20377499 57.625 103.3125 C58.94538105 105.84555729 60.27644928 108.37092846 61.63671875 110.8828125 C62.75325784 113.62782165 63.03375706 115.379067 62.625 118.3125 C61.04207124 120.36520518 60.08977219 121.20455291 57.54370117 121.79589844 C41.6284535 122.63982689 41.6284535 122.63982689 37.11328125 119.6484375 C35.49949743 117.25105786 34.53680308 115.05201645 33.625 112.3125 C33.31820313 111.56613281 33.01140625 110.81976563 32.6953125 110.05078125 C32.0548427 108.49195186 31.44208402 106.9214994 30.85498047 105.34179688 C29.42064717 101.80920306 27.73096902 98.43592821 26 95.04296875 C22.04226721 87.204166 18.24718587 79.29652706 14.51513672 71.34814453 C13.49637585 69.17978627 12.47296392 67.01366497 11.44921875 64.84765625 C-0.375 39.75907589 -0.375 39.75907589 -0.375 36.3125 C-1.035 36.3125 -1.695 36.3125 -2.375 36.3125 C-2.725625 37.49585938 -3.07625 38.67921875 -3.4375 39.8984375 C-5.76439841 46.86554104 -9.13457436 53.36329286 -12.375 59.9375 C-13.05085959 61.31950751 -13.72606376 62.70183572 -14.40063477 64.08447266 C-15.75369204 66.85735091 -17.10881436 69.62920379 -18.46533203 72.40039062 C-21.11214378 77.81455642 -23.71516544 83.24946189 -26.3125 88.6875 C-26.75424561 89.60660156 -27.19599121 90.52570313 -27.65112305 91.47265625 C-29.69480683 95.73505352 -31.69905162 100.00763049 -33.6171875 104.328125 C-33.96918213 105.11010254 -34.32117676 105.89208008 -34.68383789 106.69775391 C-35.3240315 108.12639322 -35.95215136 109.56054722 -36.56420898 111.00146484 C-38.68747939 115.71489651 -40.96677717 118.5914383 -45.375 121.3125 C-48.49277924 121.91973464 -51.46065315 121.88014652 -54.625 121.75 C-55.4396875 121.74419922 -56.254375 121.73839844 -57.09375 121.73242188 C-63.07894389 121.60855611 -63.07894389 121.60855611 -65.375 119.3125 C-65.94009781 113.81625104 -64.71595856 110.1044485 -62.125 105.375 C-61.38586775 103.96138213 -60.64764496 102.5472885 -59.91015625 101.1328125 C-59.30131592 99.98087402 -59.30131592 99.98087402 -58.68017578 98.80566406 C-56.24425448 94.15253494 -53.90885316 89.44874779 -51.5625 84.75 C-51.04896973 83.72422852 -50.53543945 82.69845703 -50.00634766 81.64160156 C-45.67056314 72.95920998 -41.47012415 64.21634196 -37.30078125 55.453125 C-31.7146351 43.71275004 -26.05070666 32.00977669 -20.375 20.3125 C-19.92898438 19.39033691 -19.48296875 18.46817383 -19.0234375 17.51806641 C-17.91827986 15.23778752 -16.80506952 12.96171489 -15.6875 10.6875 C-15.38497314 10.06109619 -15.08244629 9.43469238 -14.77075195 8.78930664 C-11.42948471 2.05367486 -11.42948471 2.05367486 -7.5234375 0.64453125 C-4.99859879 0.2543289 -2.55515293 0.06799427 0 0 Z " fill="#F8F8F8" transform="translate(1285.375,327.6875)"/>
<path d="M0 0 C0.87818893 -0.00960754 1.75637787 -0.01921509 2.66117859 -0.02911377 C3.61321671 -0.03336365 4.56525482 -0.03761353 5.54614258 -0.04199219 C6.52553299 -0.04769226 7.5049234 -0.05339233 8.51399231 -0.05926514 C10.59118568 -0.06872443 12.66839412 -0.0752528 14.74560547 -0.07910156 C17.91050817 -0.08877499 21.07475265 -0.11977646 24.23950195 -0.15136719 C26.25837831 -0.15790048 28.27725931 -0.16314967 30.29614258 -0.16699219 C31.23805954 -0.17933899 32.1799765 -0.19168579 33.1504364 -0.20440674 C40.22675901 -0.18065066 45.01829494 0.85167953 50.56567383 5.53613281 C55.27881229 11.19189897 55.06056783 16.54716599 55.05395508 23.61425781 C55.0582402 24.62905212 55.06252533 25.64384644 55.06694031 26.68939209 C55.07267552 28.83442439 55.07318983 30.97947614 55.06884766 33.12451172 C55.06569833 36.3857599 55.08912059 39.64609114 55.11450195 42.90722656 C55.11677627 44.99706918 55.11747783 47.08691421 55.11645508 49.17675781 C55.12566483 50.1426886 55.13487457 51.10861938 55.1443634 52.1038208 C55.1010639 58.52810846 54.70369849 65.58167827 50.44282532 70.75079346 C44.56322868 76.02639435 38.21940132 76.47027763 30.73364258 76.46191406 C29.87563553 76.46619919 29.01762848 76.47048431 28.13362122 76.47489929 C26.32411579 76.48062268 24.51458737 76.48115758 22.70507812 76.47680664 C19.95963544 76.47365458 17.21527982 76.49710296 14.4699707 76.52246094 C12.70369601 76.52473517 10.93741844 76.52543685 9.17114258 76.52441406 C8.3614653 76.53362381 7.55178802 76.54283356 6.71757507 76.55232239 C0.02016052 76.49889304 -6.68394991 75.59257953 -11.68432617 70.84863281 C-15.50215961 64.28195931 -15.55407403 58.25529855 -15.54760742 50.84863281 C-15.55189255 49.76155029 -15.55617767 48.67446777 -15.56059265 47.55444336 C-15.56632238 45.26156306 -15.56684624 42.96866459 -15.5625 40.67578125 C-15.55933706 37.17318703 -15.58282739 33.67143541 -15.6081543 30.16894531 C-15.61042716 27.93717554 -15.61113085 25.70540351 -15.61010742 23.47363281 C-15.61931717 22.42973389 -15.62852692 21.38583496 -15.63801575 20.31030273 C-15.59844331 14.07647667 -15.16703369 9.28939583 -10.71166992 4.51660156 C-6.87110375 1.57969802 -4.80105523 0.04236087 0 0 Z " fill="#020202" transform="translate(1475.246826171875,350.8388671875)"/>
<path d="M0 0 C0.90748993 -0.0065712 1.81497986 -0.0131424 2.74996948 -0.01991272 C5.76202471 -0.03967057 8.77403001 -0.05131431 11.78613281 -0.0612793 C12.81387062 -0.06535482 13.84160843 -0.06943035 14.90048981 -0.07362938 C20.3408844 -0.09450148 25.78125369 -0.10879784 31.22167969 -0.11816406 C36.84191838 -0.12922633 42.46176091 -0.16362106 48.08185959 -0.20333576 C52.40216814 -0.22948059 56.72238205 -0.23785405 61.04276276 -0.24144554 C63.11439945 -0.2463176 65.18603174 -0.25794914 67.25759125 -0.27648354 C70.15902576 -0.30082755 73.05943215 -0.29991841 75.9609375 -0.29296875 C76.81519318 -0.30577881 77.66944885 -0.31858887 78.54959106 -0.33178711 C83.89041793 -0.28521386 87.05333459 0.53818173 91.23925781 4.17700195 C92.77863406 8.7951307 92.76101678 13.35425691 92.23925781 18.17700195 C90.14144842 21.7939147 89.19051556 22.85991604 85.23925781 24.17700195 C82.65595552 24.33022554 80.09433542 24.43407084 77.50878906 24.4934082 C76.75836838 24.5141893 76.00794769 24.5349704 75.23478699 24.55638123 C72.84053597 24.62170122 70.44617643 24.68067988 68.05175781 24.73950195 C66.42739769 24.78270388 64.80304849 24.82631871 63.17871094 24.87036133 C59.19900411 24.97736458 55.21918824 25.07868133 51.23925781 25.17700195 C51.23783279 26.33323059 51.23640778 27.48945923 51.23493958 28.6807251 C51.21828028 39.56961959 51.17553934 50.45813986 51.10716724 61.34683609 C51.07285579 66.94506452 51.04778078 72.54301885 51.04370117 78.14135742 C51.03942718 83.54269763 51.0110389 88.94341907 50.96582603 94.34456635 C50.95282227 96.40662789 50.94855349 98.46876338 50.95310402 100.5308609 C50.95798951 103.41651983 50.93200892 106.30035595 50.89868164 109.18579102 C50.90730728 110.04102859 50.91593292 110.89626617 50.92481995 111.77742004 C50.84462992 115.91093087 50.80087037 117.56226093 47.92704773 120.70794678 C44.34735378 122.66448657 41.67461521 122.67456641 37.61425781 122.61450195 C36.30199219 122.61321289 34.98972656 122.61192383 33.63769531 122.6105957 C30.23925781 122.17700195 30.23925781 122.17700195 28.34082031 120.8371582 C25.58380501 116.68208196 26.1055201 112.16682669 26.12573242 107.39111328 C26.1255864 106.49334671 26.12544037 105.59558014 26.12528992 104.67060852 C26.12598717 101.70005893 26.13377085 98.72957186 26.14160156 95.7590332 C26.14346641 93.70065851 26.14489 91.64228338 26.14588928 89.58390808 C26.14970922 84.16369402 26.15953508 78.74350671 26.17059326 73.32330322 C26.1808186 67.79342002 26.18538931 62.2635325 26.19042969 56.73364258 C26.20115779 45.88141728 26.21822797 35.02921184 26.23925781 24.17700195 C24.68815308 24.20056763 24.68815308 24.20056763 23.10571289 24.22460938 C19.25732254 24.27904249 15.40896602 24.31340044 11.56030273 24.34179688 C9.896833 24.3568531 8.23340276 24.37730259 6.57006836 24.40332031 C4.1745426 24.43984402 1.77954315 24.45675977 -0.61621094 24.4699707 C-1.35598679 24.48545456 -2.09576263 24.50093842 -2.85795593 24.51689148 C-7.35440497 24.51834627 -10.20633719 23.98090953 -13.76074219 21.17700195 C-16.86616727 16.51886433 -16.50381982 11.62869032 -15.76074219 6.17700195 C-11.17119752 0.01734989 -7.2220483 0.02251909 0 0 Z " fill="#F6F6F6" transform="translate(1338.7607421875,326.822998046875)"/>
<path d="M0 0 C1.96839844 0.01546875 1.96839844 0.01546875 3.9765625 0.03125 C7.375 0.5 7.375 0.5 9.2734375 1.84375 C11.98673394 5.92331628 11.54065739 10.35704849 11.56445312 15.0546875 C11.57274643 15.92812805 11.58103973 16.8015686 11.58958435 17.70147705 C11.60698459 19.59867542 11.62215148 21.49589527 11.63536072 23.39312744 C11.65637953 26.39348981 11.68340271 29.39374424 11.71203613 32.39404297 C11.78189057 39.84540451 11.84127681 47.29684315 11.90106201 54.74829102 C11.95197308 61.04417461 12.00679514 67.34000029 12.06687927 73.63580322 C12.09348539 76.59556362 12.11428042 79.55532934 12.1348877 82.51513672 C12.15148875 84.32519795 12.16836042 86.13525673 12.18554688 87.9453125 C12.1918235 89.18441376 12.1918235 89.18441376 12.19822693 90.44854736 C12.23424205 93.71638131 12.33445248 96.37835743 13.375 99.5 C14.12810959 99.48889694 14.88121918 99.47779388 15.65715027 99.46635437 C22.76340453 99.36606253 29.86941263 99.28999009 36.97617626 99.24093914 C40.62968893 99.21487305 44.2826156 99.17953224 47.93579102 99.12280273 C51.46308948 99.06837235 54.98982527 99.03855698 58.51751137 99.02561378 C60.51456402 99.01191361 62.51139106 98.97289706 64.50810242 98.93351746 C74.60945578 98.93039282 74.60945578 98.93039282 77.69799805 101.83105469 C79.76561829 105.12166823 80.04487121 107.19011489 80 111.0625 C80.01933594 112.73505859 80.01933594 112.73505859 80.0390625 114.44140625 C79.375 117.5 79.375 117.5 77.2933197 119.65881348 C73.62079982 121.97582971 71.34406542 122.00701331 67.01782227 122.01757812 C65.93390701 122.02809204 65.93390701 122.02809204 64.82809448 122.03881836 C62.44880285 122.05636641 60.07070916 122.04478678 57.69140625 122.03125 C56.03140536 122.03394615 54.37140602 122.0378296 52.71141052 122.04284668 C49.2354323 122.04873762 45.75986582 122.04019322 42.28393555 122.02148438 C37.83731779 121.99871249 33.39166675 122.01180871 28.94508457 122.03577423 C25.51772334 122.05025856 22.09058961 122.04561393 18.66322136 122.03526306 C17.02422915 122.03260211 15.38521602 122.03584326 13.74624825 122.04518127 C11.45080348 122.05538886 9.15690261 122.03978884 6.86157227 122.01757812 C4.90562889 122.01280457 4.90562889 122.01280457 2.91017151 122.00793457 C-2.3084135 121.25812661 -5.35681917 118.87386257 -8.875 115.0625 C-12.80113908 109.31351064 -12.92654746 104.4181217 -12.93139648 97.6484375 C-12.93972 96.66087463 -12.94804352 95.67331177 -12.95661926 94.65582275 C-12.98069031 91.39550829 -12.98948663 88.13539386 -12.99609375 84.875 C-13.00506018 82.6072585 -13.01418203 80.33951762 -13.02345276 78.07177734 C-13.03993596 73.32062339 -13.04764204 68.56953988 -13.05053711 63.81835938 C-13.05592924 57.72830433 -13.0936471 51.63890994 -13.13928127 45.54904175 C-13.16900602 40.8667559 -13.17625963 36.18463031 -13.17726326 31.5022583 C-13.18147236 29.25674402 -13.1939341 27.01122956 -13.21478081 24.76580811 C-13.24160747 21.62722906 -13.23689583 18.49019727 -13.22436523 15.3515625 C-13.23919952 14.42361877 -13.25403381 13.49567505 -13.26931763 12.53961182 C-13.21835533 8.06176277 -13.07617069 6.10169214 -10.31654358 2.42138672 C-6.73015426 -0.13879505 -4.36922781 -0.10341368 0 0 Z " fill="#F9F9F9" transform="translate(912.625,327.5)"/>
<path d="M0 0 C1.19625 0.00128906 2.3925 0.00257813 3.625 0.00390625 C7.36499012 0.48439109 9.09389509 1.05177163 12 3.4375 C12.63923645 6.56962585 12.63923645 6.56962585 12.65942383 10.47924805 C12.66990753 11.19169678 12.68039124 11.90414551 12.69119263 12.63818359 C12.71998691 14.99230264 12.7136468 17.34495486 12.70703125 19.69921875 C12.7201438 21.33162788 12.73544666 22.96402078 12.75285339 24.59638977 C12.79276891 28.89218674 12.80289798 33.18755995 12.80688477 37.48352051 C12.81620398 41.8674002 12.85360979 46.25102961 12.88867188 50.63476562 C12.95331431 59.23568158 12.98649966 67.83635248 13 76.4375 C13.85555481 76.44114563 14.71110962 76.44479126 15.59259033 76.44854736 C23.65602373 76.48641642 31.71905221 76.5432565 39.78219986 76.62140274 C43.92756991 76.66090968 48.07272652 76.69308215 52.21826172 76.70849609 C56.21910123 76.72364185 60.21935409 76.75804933 64.21993256 76.80580902 C65.7460902 76.8206445 67.27233158 76.82854226 68.7985611 76.82938385 C70.93698136 76.83174895 73.07377426 76.85878678 75.21191406 76.89160156 C77.03725677 76.90492523 77.03725677 76.90492523 78.8994751 76.91851807 C82.5890984 77.53610635 83.77974662 78.47674103 86 81.4375 C86.53125 84.3125 86.53125 84.3125 86.5 87.4375 C86.51546875 88.984375 86.51546875 88.984375 86.53125 90.5625 C85.84903817 94.25446989 85.01142164 95.20420274 82 97.4375 C79.0293319 97.84231485 76.42680146 98.00499364 73.45532227 97.98681641 C72.59470184 97.99703827 71.73408142 98.00726013 70.84738159 98.01779175 C68.00343993 98.04558462 65.16046754 98.04367083 62.31640625 98.0390625 C60.33869567 98.04683631 58.36098843 98.05550563 56.38328552 98.06503296 C52.23807959 98.07995737 48.09321433 98.07937515 43.94799805 98.06884766 C38.63675211 98.05725638 33.32690067 98.09112105 28.01588535 98.137537 C23.93145094 98.16700624 19.84735263 98.16875609 15.76283073 98.16251755 C13.80480117 98.16354424 11.84675286 98.17402503 9.88882637 98.19414139 C7.14965433 98.21883076 4.41320104 98.2053199 1.67407227 98.18212891 C0.46213951 98.20506012 0.46213951 98.20506012 -0.77427673 98.22845459 C-5.07022145 98.14809456 -6.58854876 97.78138731 -10.00169373 94.92871094 C-12.67211849 91.08150021 -12.70572213 87.3939459 -12.64697266 82.83349609 C-12.66011505 81.56897865 -12.66011505 81.56897865 -12.67352295 80.27891541 C-12.69544465 77.50572524 -12.68099311 74.73414248 -12.6640625 71.9609375 C-12.66743209 70.02853083 -12.67228591 68.09612623 -12.67855835 66.16372681 C-12.68591933 62.1203385 -12.67524677 58.07750354 -12.65185547 54.03417969 C-12.62332992 48.85078226 -12.63980047 43.6686771 -12.66971779 38.48532677 C-12.68777911 34.4978561 -12.68203875 30.5106923 -12.66907883 26.52321243 C-12.66574357 24.61183138 -12.6698361 22.70042246 -12.68147659 20.78907394 C-12.6941705 18.1195355 -12.67483192 15.45209673 -12.64697266 12.78271484 C-12.65709381 11.99300797 -12.66721497 11.20330109 -12.67764282 10.3896637 C-12.60315862 6.53917619 -12.34277096 4.80397165 -9.67050171 1.94692993 C-6.26107282 0.0198411 -3.89982785 -0.06303601 0 0 Z " fill="#F8F8F8" transform="translate(796,480.5625)"/>
<path d="M0 0 C3.0625 0.1875 3.0625 0.1875 5.0625 2.1875 C5.314349 4.93954843 5.314349 4.93954843 5.31697559 8.53160763 C5.32018207 9.19317064 5.32338855 9.85473365 5.32669219 10.53634402 C5.3350582 12.77487997 5.32904513 15.01315293 5.32319641 17.25169373 C5.3262141 18.86408051 5.33010164 20.47646586 5.33478898 22.08884865 C5.34512715 26.53657791 5.34287246 30.98422708 5.33860838 35.43196309 C5.33615165 40.22208676 5.34514215 45.01219061 5.35264587 49.80230713 C5.36542431 59.19314676 5.36718266 68.58395783 5.36484561 77.97480469 C5.36306581 85.60440757 5.36480481 93.23400175 5.36907005 100.86360359 C5.36996284 102.48964724 5.36996284 102.48964724 5.37087366 104.14854025 C5.37208535 106.35042699 5.37329948 108.55231373 5.37451603 110.75420047 C5.38540367 131.4242788 5.38322328 152.09434084 5.37713119 172.7644201 C5.37196081 191.69304299 5.38321848 210.62161444 5.40222941 229.55022716 C5.42157986 248.9650529 5.42986873 268.37985426 5.42610615 287.79468971 C5.42418987 298.70308853 5.42672307 309.61144354 5.44082069 320.51983452 C5.45269995 329.80604984 5.4541784 339.0921944 5.44203053 348.37841063 C5.43611746 353.1199911 5.43510897 357.86144195 5.44703293 362.60301399 C5.45780987 366.93871559 5.45488709 371.27417804 5.44077124 375.60986806 C5.43810154 377.18320238 5.44056126 378.75655495 5.44850711 380.32987147 C5.45852032 382.45939189 5.4502724 384.58806595 5.43723011 386.71755123 C5.43728513 387.90309312 5.43734014 389.088635 5.43739682 390.3101024 C5.0625 393.1875 5.0625 393.1875 3.70314187 395.1074968 C2.0625 396.1875 2.0625 396.1875 -0.5625 395.9375 C-2.9375 395.1875 -2.9375 395.1875 -3.9375 394.1875 C-4.03634035 392.10346044 -4.06305719 390.01600092 -4.06334114 387.92961884 C-4.06479458 387.26523373 -4.06624802 386.60084862 -4.06774551 385.91633064 C-4.0714311 383.66225639 -4.06790734 381.40824869 -4.06448364 379.1541748 C-4.06563445 377.53297754 -4.0672217 375.91178054 -4.06921089 374.29058409 C-4.07340973 369.81394853 -4.07131103 365.33733412 -4.06822467 360.86069846 C-4.06597303 356.04129116 -4.069449 351.22188764 -4.07220459 346.40248108 C-4.07666383 336.95268986 -4.07568514 327.50290655 -4.07279195 318.05311501 C-4.07053852 310.37675354 -4.07022513 302.7003943 -4.07131577 295.02403259 C-4.071469 293.93373984 -4.07162223 292.84344708 -4.07178011 291.72011515 C-4.07209982 289.50558142 -4.07242403 287.29104768 -4.0727527 285.07651395 C-4.07560794 264.28441944 -4.07231978 243.49232933 -4.06695233 222.70023555 C-4.06248425 204.83872904 -4.06326017 186.97722904 -4.06787109 169.11572266 C-4.07321608 148.40077053 -4.07533325 127.68582226 -4.07225883 106.97086954 C-4.07194026 104.7642355 -4.07162589 102.55760145 -4.07131577 100.35096741 C-4.07116149 99.26510777 -4.07100721 98.17924814 -4.07084826 97.06048366 C-4.06998288 89.38854233 -4.07144644 81.71660343 -4.07379532 74.04466248 C-4.07659268 64.70202527 -4.07585642 55.35939647 -4.07051457 46.01676023 C-4.06787669 41.24509682 -4.06687396 36.47344746 -4.07016373 31.70178413 C-4.07312492 27.34093188 -4.07153687 22.98010679 -4.06618617 18.61925703 C-4.06506122 17.0344885 -4.06565487 15.4497177 -4.06806196 13.8649506 C-4.07106503 11.72506061 -4.06802246 9.58526601 -4.06334114 7.44538116 C-4.06309761 5.65600278 -4.06309761 5.65600278 -4.06284916 3.83047533 C-3.88618032 0.10542944 -3.75778757 0.23985878 0 0 Z " fill="#EAEAEA" transform="translate(727.9375,237.8125)"/>
<path d="M0 0 C0.98159592 -0.00960754 1.96319183 -0.01921509 2.97453308 -0.02911377 C4.04423843 -0.03336365 5.11394379 -0.03761353 6.21606445 -0.04199219 C7.85730034 -0.0505423 7.85730034 -0.0505423 9.5316925 -0.05926514 C11.85445178 -0.06873435 14.17722461 -0.0752567 16.5 -0.07910156 C20.04687191 -0.08877859 23.59315755 -0.11977264 27.13989258 -0.15136719 C29.39444642 -0.15789977 31.64900442 -0.16314924 33.90356445 -0.16699219 C35.49294075 -0.18551239 35.49294075 -0.18551239 37.11442566 -0.20440674 C42.61728924 -0.18784833 46.673495 -0.01663001 51.3918457 3.16113281 C54.92582237 7.30157581 54.9099208 11.3975227 54.8918457 16.59863281 C54.92020508 17.33662109 54.94856445 18.07460938 54.9777832 18.83496094 C54.99194132 22.81693165 54.62070198 25.39996998 52.1105957 28.57128906 C48.27691354 32.22320181 45.75282243 33.41284935 40.47143555 33.40405273 C39.01004654 33.40866768 39.01004654 33.40866768 37.51913452 33.41337585 C36.47423859 33.40619034 35.42934265 33.39900482 34.3527832 33.39160156 C32.73697861 33.39091423 32.73697861 33.39091423 31.08853149 33.39021301 C28.81397397 33.38719417 26.53941844 33.37931889 24.26489258 33.36694336 C20.77328211 33.3486665 17.28193655 33.34643387 13.7902832 33.34667969 C11.58194756 33.34176516 9.37361373 33.33593712 7.1652832 33.32910156 C5.59186661 33.32743233 5.59186661 33.32743233 3.98666382 33.32572937 C3.0187088 33.31934952 2.05075378 33.31296967 1.0534668 33.30639648 C-0.22749374 33.30067879 -0.22749374 33.30067879 -1.53433228 33.29484558 C-3.6081543 33.16113281 -3.6081543 33.16113281 -5.6081543 32.16113281 C-5.63280933 27.76457109 -5.65099272 23.36804561 -5.66308594 18.97143555 C-5.66812551 17.47468363 -5.67495717 15.97793666 -5.68359375 14.48120117 C-5.69567588 12.33413474 -5.70138621 10.18713319 -5.70581055 8.04003906 C-5.71104736 6.74654541 -5.71628418 5.45305176 -5.72167969 4.12036133 C-5.54275847 -0.54351835 -4.23002869 0.03327775 0 0 Z " fill="#040404" transform="translate(1596.608154296875,350.8388671875)"/>
<path d="M0 0 C7.58895141 -0.09053535 15.17770037 -0.1638506 22.76706123 -0.20724869 C26.29152694 -0.22808269 29.81560253 -0.25632202 33.33984375 -0.30175781 C37.39587043 -0.35371956 41.45149029 -0.37297967 45.5078125 -0.390625 C46.76739777 -0.41127014 48.02698303 -0.43191528 49.32473755 -0.45318604 C60.4087158 -0.45602209 60.4087158 -0.45602209 65 4 C65.76171875 6.62109375 65.76171875 6.62109375 65.6875 9.4375 C65.69136719 10.36433594 65.69523437 11.29117188 65.69921875 12.24609375 C64.97045185 15.11637679 64.08640407 16.90233431 61.92747498 18.95042419 C57.3284367 21.45475725 51.46830865 20.5902054 46.38671875 20.48828125 C45.04866357 20.47894787 43.71059123 20.47183423 42.37251282 20.46684265 C38.86217514 20.44781319 35.35288302 20.39875053 31.84295654 20.34332275 C28.25677635 20.29204083 24.67042608 20.26930974 21.08398438 20.24414062 C14.05551851 20.19062516 7.0279172 20.10272422 0 20 C0 13.4 0 6.8 0 0 Z " fill="#040404" transform="translate(1108,538)"/>
<path d="M0 0 C1.65258064 -0.01925285 1.65258064 -0.01925285 3.33854675 -0.03889465 C4.53949478 -0.04628159 5.74044281 -0.05366852 6.9777832 -0.0612793 C8.20511673 -0.06935104 9.43245026 -0.07742279 10.69697571 -0.08573914 C13.30220111 -0.09960249 15.90744485 -0.11031451 18.51269531 -0.11816406 C22.49417634 -0.13136341 26.47504333 -0.17921556 30.45629883 -0.22338867 C32.9842875 -0.23351734 35.51228325 -0.24203289 38.0402832 -0.2487793 C39.23111008 -0.26628738 40.42193695 -0.28379547 41.64884949 -0.30183411 C48.68912878 -0.28340264 52.75821154 0.09414904 57.84106445 5.17700195 C58.35638352 9.81487355 58.78296772 13.84534561 56.02856445 17.73950195 C52.42953728 20.10457695 49.5775789 20.30300315 45.37573242 20.30639648 C43.69917068 20.31112473 43.69917068 20.31112473 41.98873901 20.31594849 C40.17927292 20.31291214 40.17927292 20.31291214 38.33325195 20.30981445 C36.47870895 20.31124954 36.47870895 20.31124954 34.58670044 20.31271362 C31.30241137 20.31356901 28.01816951 20.30953991 24.73388672 20.30395508 C22.71507265 20.30200099 20.69630193 20.30395175 18.67749023 20.30737305 C14.81272338 20.31352337 10.94802142 20.31280974 7.08325195 20.30981445 C5.87289276 20.31183868 4.66253357 20.31386292 3.41549683 20.31594849 C2.30409332 20.31279633 1.19268982 20.30964417 0.04760742 20.30639648 C-0.93595734 20.30560089 -1.91952209 20.3048053 -2.93289185 20.3039856 C-5.15893555 20.17700195 -5.15893555 20.17700195 -6.15893555 19.17700195 C-6.25730765 17.8465657 -6.28972147 16.51106851 -6.29174805 15.17700195 C-6.29303711 14.37262695 -6.29432617 13.56825195 -6.2956543 12.73950195 C-6.29178711 11.89387695 -6.28791992 11.04825195 -6.28393555 10.17700195 C-6.28780273 9.33137695 -6.29166992 8.48575195 -6.2956543 7.61450195 C-6.29436523 6.81012695 -6.29307617 6.00575195 -6.29174805 5.17700195 C-6.29062012 4.43450195 -6.28949219 3.69200195 -6.28833008 2.92700195 C-6.00796067 -0.86486199 -3.17314326 0.03205394 0 0 Z " fill="#0D0D0D" transform="translate(1114.158935546875,499.822998046875)"/>
<path d="M0 0 C3.09491601 3.65142049 5.4234497 7.35681087 7.671875 11.578125 C7.99915588 12.19016785 8.32643677 12.80221069 8.66363525 13.43280029 C9.34833579 14.71562532 10.03057618 15.99976623 10.71044922 17.28515625 C11.75575111 19.26087012 12.80886125 21.2322648 13.86328125 23.203125 C19 32.84484948 19 32.84484948 19 34 C6.46 34 -6.08 34 -19 34 C-17.51828969 30.29572422 -16.04605516 27.12860653 -14.1015625 23.69140625 C-13.53953125 22.69689453 -12.9775 21.70238281 -12.3984375 20.67773438 C-11.81320312 19.64970703 -11.22796875 18.62167969 -10.625 17.5625 C-10.0475 16.53833984 -9.47 15.51417969 -8.875 14.45898438 C-6.07352936 9.51803445 -3.24667356 4.66209529 0 0 Z " fill="#080808" transform="translate(981,506)"/>
<path d="M0 0 C3.92710616 2.29808435 6.55264149 4.65792447 8 9 C8.54138857 13.6594918 8.43067041 17.10553068 6.375 21.375 C2.61578724 25.52991937 -0.41828214 26.77404031 -5.9375 27.5625 C-10.21715001 27.39821401 -12.58939558 25.57168789 -15.5859375 22.63671875 C-18.64880043 19.09158182 -19 16.79767155 -19 12.125 C-18.25719354 7.35110967 -15.61103866 4.09902572 -12 1 C-7.90386827 -0.36537724 -4.27309313 -0.76406301 0 0 Z " fill="#F5F5F6" transform="translate(1289,409)"/>
<path d="M0 0 C-3.91191951 1.2944795 -7.82426326 1.09256095 -11.88964844 1.02172852 C-12.68027176 1.01212097 -13.47089508 1.00251343 -14.28547668 0.99261475 C-16.89353515 0.95968659 -19.50142286 0.91933079 -22.109375 0.87890625 C-23.91969199 0.85459909 -25.73001527 0.83075583 -27.54034424 0.80735779 C-32.30136277 0.74457619 -37.06226984 0.67549276 -41.82318115 0.60510254 C-46.68285045 0.53436558 -51.54259868 0.46958071 -56.40234375 0.40429688 C-65.93498259 0.2753609 -75.46751427 0.13976818 -85 0 C-85 -0.33 -85 -0.66 -85 -1 C-74.50816334 -1.1769963 -64.01621586 -1.34294991 -53.523983 -1.49477577 C-48.65211342 -1.56562096 -43.78036433 -1.64028049 -38.90869141 -1.72363281 C-34.20798155 -1.80392009 -29.50721904 -1.87421961 -24.80625153 -1.93757248 C-23.01204162 -1.96351222 -21.21788017 -1.99306125 -19.42378998 -2.02626419 C-16.91244189 -2.07212704 -14.40122848 -2.10519742 -11.88964844 -2.13525391 C-11.14661972 -2.1517952 -10.403591 -2.16833649 -9.63804626 -2.18537903 C-5.91696764 -2.21606007 -3.15676462 -2.07716876 0 0 Z " fill="#F1F1F1" transform="translate(354,581)"/>
<path d="M0 0 C15.84 0.33 31.68 0.66 48 1 C48 1.33 48 1.66 48 2 C47.45098526 2.01030746 46.90197052 2.02061493 46.33631897 2.03123474 C40.64278719 2.13907947 34.94942079 2.25369449 29.25610352 2.37231445 C27.12885993 2.41573423 25.0015799 2.45740393 22.87426758 2.49731445 C19.82361849 2.55484707 16.77315411 2.61858967 13.72265625 2.68359375 C12.76537125 2.70030624 11.80808624 2.71701874 10.8217926 2.73423767 C9.94095505 2.75418289 9.06011749 2.77412811 8.15258789 2.79467773 C6.9834359 2.81799416 6.9834359 2.81799416 5.79066467 2.84178162 C3.97706647 2.80889119 3.97706647 2.80889119 3 4 C2.84213692 5.85174706 2.74892644 7.7090911 2.68359375 9.56640625 C2.64169922 10.69111328 2.59980469 11.81582031 2.55664062 12.97460938 C2.51732422 14.15861328 2.47800781 15.34261719 2.4375 16.5625 C2.39431641 17.75037109 2.35113281 18.93824219 2.30664062 20.16210938 C2.20016454 23.10794784 2.09815159 26.0538743 2 29 C1.67 29 1.34 29 1 29 C0.67 19.43 0.34 9.86 0 0 Z " fill="#0D0D0D" transform="translate(1592,351)"/>
<path d="M0 0 C-2.67478244 1.6627026 -4.9995144 2.99983813 -8 4 C-9.70586575 5.62652316 -11.3777546 7.29006566 -13 9 C-12.7416116 5.51175659 -11.73533264 4.75785753 -9.0625 2.3125 C-4.29400387 -1.28820116 -4.29400387 -1.28820116 0 0 Z " fill="#1F1F20" transform="translate(1475,352)"/>
<path d="M0 0 C0.66 0.33 1.32 0.66 2 1 C0.35 3.64 -1.3 6.28 -3 9 C-3.33 8.34 -3.66 7.68 -4 7 C-6.01669827 5.86649466 -6.01669827 5.86649466 -8 5 C-6.71475739 4.13619741 -5.42157581 3.28419631 -4.125 2.4375 C-3.04605469 1.72400391 -3.04605469 1.72400391 -1.9453125 0.99609375 C-1.30335938 0.66738281 -0.66140625 0.33867187 0 0 Z " fill="#2E2D2E" transform="translate(468,338)"/>
<path d="M0 0 C0.33 0 0.66 0 1 0 C1 5.61 1 11.22 1 17 C1.66 17.33 2.32 17.66 3 18 C1.68 18.99 0.36 19.98 -1 21 C-0.67 14.07 -0.34 7.14 0 0 Z " fill="#686867" transform="translate(1196,541)"/>
<path d="M0 0 C0.53625 0.226875 1.0725 0.45375 1.625 0.6875 C-1.5004959 3.33215038 -4.46288267 4.53164715 -8.375 5.6875 C-8.375 4.6975 -8.375 3.7075 -8.375 2.6875 C-2.95961538 -0.38942308 -2.95961538 -0.38942308 0 0 Z " fill="#EBEBEB" transform="translate(388.375,534.3125)"/>
<path d="M0 0 C0.33 0.99 0.66 1.98 1 3 C-6.50769231 3.36923077 -6.50769231 3.36923077 -9 1.5 C-9.33 1.005 -9.66 0.51 -10 0 C-6.7169902 -1.6415049 -3.57454967 -0.51888624 0 0 Z " fill="#BEBFBE" transform="translate(1286,433)"/>
<path d="M0 0 C0.66 0.33 1.32 0.66 2 1 C-4.07439825 6.05908096 -4.07439825 6.05908096 -7.9375 5.8125 C-8.618125 5.544375 -9.29875 5.27625 -10 5 C-6.76527494 2.84351662 -3.62848922 1.38542316 0 0 Z " fill="#BEBEBE" transform="translate(422,312)"/>
<path d="M0 0 C0.66 0.99 1.32 1.98 2 3 C-0.31 5.64 -2.62 8.28 -5 11 C-5 7.58678765 -4.33132534 6.60527115 -2.5 3.8125 C-2.0359375 3.09707031 -1.571875 2.38164063 -1.09375 1.64453125 C-0.7328125 1.10183594 -0.371875 0.55914063 0 0 Z " fill="#D9D8D9" transform="translate(423,541)"/>
<path d="M0 0 C1.32 0.66 2.64 1.32 4 2 C-0.455 3.485 -0.455 3.485 -5 5 C-5.66 4.34 -6.32 3.68 -7 3 C-3.75 1.375 -3.75 1.375 0 0 Z " fill="#0D0D0D" transform="translate(426,308)"/>
<path d="M0 0 C-5.75 5 -5.75 5 -8 5 C-8 4.34 -8 3.68 -8 3 C-8.66 2.67 -9.32 2.34 -10 2 C-8.71211992 1.46987262 -7.41953322 0.9511671 -6.125 0.4375 C-5.40570313 0.14746094 -4.68640625 -0.14257812 -3.9453125 -0.44140625 C-2 -1 -2 -1 0 0 Z " fill="#D1D1D1" transform="translate(457,300)"/>
<path d="M0 0 C0.66 0.66 1.32 1.32 2 2 C4.66242821 2.46290221 4.66242821 2.46290221 7.625 2.625 C9.12933594 2.73714844 9.12933594 2.73714844 10.6640625 2.8515625 C11.43492187 2.90054688 12.20578125 2.94953125 13 3 C13 3.33 13 3.66 13 4 C8.05 4 3.1 4 -2 4 C-1.34 2.68 -0.68 1.36 0 0 Z " fill="#1B1A1B" transform="translate(964,535)"/>
<path d="M0 0 C0.66 0.33 1.32 0.66 2 1 C-0.66666667 3.66666667 -3.33333333 6.33333333 -6 9 C-6.66 8.67 -7.32 8.34 -8 8 C-5.36 5.36 -2.72 2.72 0 0 Z " fill="#E2E2E3" transform="translate(324,418)"/>
<path d="M0 0 C0.66 0.99 1.32 1.98 2 3 C1.360625 3.598125 0.72125 4.19625 0.0625 4.8125 C-2.20310389 6.90810337 -2.20310389 6.90810337 -3 10 C-3.99 10.33 -4.98 10.66 -6 11 C-4.54955729 6.89041233 -2.48889248 3.56741255 0 0 Z " fill="#CDCCCD" transform="translate(451,366)"/>
<path d="M0 0 C0.66 0.99 1.32 1.98 2 3 C0.73046875 4.49739583 -0.5390625 5.99479167 -1.80859375 7.4921875 C-3.0878152 9.00594079 -3.0878152 9.00594079 -4 11 C-4.66 10.67 -5.32 10.34 -6 10 C-4.02 6.7 -2.04 3.4 0 0 Z " fill="#D6D5D7" transform="translate(458,355)"/>
<path d="M0 0 C0.66 0.99 1.32 1.98 2 3 C0.7260411 5.03833424 -0.61061923 7.03852126 -2 9 C-2.66 9 -3.32 9 -4 9 C-2.94124926 5.59687262 -1.99097846 2.98646769 0 0 Z " fill="#2C2C2C" transform="translate(949,561)"/>
<path d="M0 0 C-0.33 0.99 -0.66 1.98 -1 3 C-3.64 3 -6.28 3 -9 3 C-6.15236477 0.15236477 -3.96383452 0 0 0 Z " fill="#D7D7D7" transform="translate(1466,329)"/>
<path d="M0 0 C0.98120464 3.05263664 0.98120464 4.94736336 0 8 C-0.99 8 -1.98 8 -3 8 C-1.125 2.25 -1.125 2.25 0 0 Z " fill="#CECDCE" transform="translate(1195,380)"/>
<path d="M0 0 C0.33 1.32 0.66 2.64 1 4 C-0.9375 6.75 -0.9375 6.75 -3 9 C-3.66 8.67 -4.32 8.34 -5 8 C-3.35 5.36 -1.7 2.72 0 0 Z " fill="#2D2C2D" transform="translate(547,294)"/>
</svg>
